<svg width="631" height="143" viewBox="0 0 631 143" fill="none" xmlns="http://www.w3.org/2000/svg">
<path opacity="0.7" d="M76.7828 139.094C76.7828 140.518 75.3571 141.942 73.9313 141.942C72.5055 141.942 71.0797 140.518 71.0797 139.094C71.0797 137.67 72.5055 136.246 73.9313 136.246C75.3571 136.246 76.7828 137.67 76.7828 139.094Z" fill="white"/>
<path opacity="0.7" d="M103.397 95.4191C103.397 96.3686 102.446 97.318 101.496 97.318C100.545 97.318 99.5948 96.3686 99.5948 95.4191C99.5948 94.4697 100.545 93.5202 101.496 93.5202C102.922 93.5202 103.397 94.4697 103.397 95.4191Z" fill="white"/>
<path opacity="0.7" d="M136.189 21.8373C136.189 22.7867 135.238 23.7362 134.288 23.7362C133.337 23.7362 132.387 22.7867 132.387 21.8373C132.387 20.8878 133.337 19.9384 134.288 19.9384C135.714 19.9384 136.189 20.8878 136.189 21.8373Z" fill="white"/>
<path opacity="0.7" d="M262.61 0.949456C262.61 0.47473 263.085 0 263.561 0C264.036 0 264.511 0.47473 264.511 0.949456C264.511 1.42418 264.036 1.89891 263.561 1.89891C263.085 1.89891 262.61 1.89891 262.61 0.949456Z" fill="white"/>
<path opacity="0.7" d="M191.32 125.802C191.32 125.327 191.796 124.853 192.271 124.853C192.746 124.853 193.222 125.327 193.222 125.802C193.222 126.277 192.746 126.752 192.271 126.752C191.796 126.752 191.32 126.277 191.32 125.802Z" fill="white"/>
<path opacity="0.7" d="M250.931 78.2802C250.931 77.8054 251.406 77.3307 251.882 77.3307C252.357 77.3307 252.832 77.8054 252.832 78.2802C252.832 78.7549 252.357 79.2296 251.882 79.2296C251.406 79.2296 250.931 78.7549 250.931 78.2802Z" fill="white"/>
<path opacity="0.7" d="M83.6436 48.2947C83.6436 47.82 84.1188 47.3453 84.5941 47.3453C85.0694 47.3453 85.5447 47.82 85.5447 48.2947C85.5447 48.7695 85.0694 49.2442 84.5941 49.2442C84.1188 49.2442 83.6436 48.7695 83.6436 48.2947Z" fill="white"/>
<path opacity="0.7" d="M203.202 8.54438C203.202 7.12021 204.627 5.69604 206.053 5.69604C207.479 5.69604 208.905 7.12021 208.905 8.54438C208.905 9.96856 207.479 11.3927 206.053 11.3927C204.627 11.3927 203.202 9.96856 203.202 8.54438Z" fill="white"/>
<path opacity="0.7" d="M287.324 40.8263C287.324 39.8768 288.275 38.9274 289.226 38.9274C290.176 38.9274 291.127 39.8768 291.127 40.8263C291.127 41.7757 290.176 42.7252 289.226 42.7252C288.275 42.7252 287.324 41.7757 287.324 40.8263Z" fill="white"/>
<path fill-rule="evenodd" clip-rule="evenodd" d="M226.575 77.6699C226.575 93.7942 219.749 108.271 208.803 118.51C203.625 123.336 197.387 127.22 190.56 129.809C184.44 132.163 177.732 133.458 170.788 133.458C168.316 133.458 165.844 133.34 163.49 132.987C152.78 131.574 142.894 127.102 135.008 120.393C129.241 115.568 124.416 109.565 121.002 102.857C118.884 98.6197 117.236 94.0296 116.177 89.2041C115.353 85.4378 115 81.6716 115 77.6699C115 66.6065 118.178 56.367 123.709 47.7753C126.063 44.1267 128.77 40.7136 131.948 37.7712C141.952 28.0025 155.723 22 170.788 22C171.965 22 173.259 22 174.436 22.1177C180.792 22.4708 186.794 24.0008 192.444 26.3547C193.385 26.7078 194.327 27.1786 195.268 27.6494C200.682 30.2387 205.625 33.7695 209.862 38.0066C220.22 48.0107 226.575 62.1341 226.575 77.6699Z" fill="url(#paint0_radial_179_1626)"/>
<path fill-rule="evenodd" clip-rule="evenodd" d="M141.364 114.626C136.656 114.626 128.065 107.8 123.945 99.0901C118.884 88.1444 118.767 76.6103 121.238 74.4917C121.944 73.9033 122.886 73.5502 124.063 73.5502C124.769 73.5502 125.711 73.6679 126.534 73.9033C132.419 75.6687 140.658 83.7897 144.189 92.0283C147.602 100.032 146.66 106.387 145.601 110.271C144.895 113.92 142.894 114.626 141.364 114.626Z" fill="url(#paint1_linear_179_1626)"/>
<path fill-rule="evenodd" clip-rule="evenodd" d="M125.594 69.902C125.005 69.902 124.417 69.6666 124.064 69.1958C122.533 67.4304 124.77 61.1925 125.711 58.9563C127.241 55.4254 128.889 53.5423 130.301 53.5423C130.89 53.5423 131.361 53.7777 131.831 54.1308L132.067 54.3662C133.715 56.0139 134.538 59.8978 133.008 62.9579C131.831 65.1941 128.418 69.0781 126.064 69.6666C126.064 69.902 125.829 69.902 125.594 69.902Z" fill="url(#paint2_linear_179_1626)"/>
<path fill-rule="evenodd" clip-rule="evenodd" d="M132.655 62.7226C131.595 64.8411 128.065 68.7251 125.946 69.3135C125.358 69.4312 124.887 69.4312 124.651 69.0782C123.121 67.195 127.594 54.3662 130.654 54.2485C131.125 54.2485 131.595 54.4839 131.949 54.837C133.243 56.1317 134.067 59.7802 132.655 62.7226Z" fill="url(#paint3_linear_179_1626)"/>
<path fill-rule="evenodd" clip-rule="evenodd" d="M132.655 62.7223C131.595 64.8408 128.065 68.7247 125.946 69.3132C126.064 68.4893 127.711 58.4852 131.831 54.8367C133.243 56.1313 134.067 59.7799 132.655 62.7223Z" fill="#FFFF45"/>
<path opacity="0.3" fill-rule="evenodd" clip-rule="evenodd" d="M197.21 83.2762C196.715 84.0299 196.232 84.7098 195.601 85.3668C195.078 85.814 194.493 86.176 194.106 86.72C192.678 88.6123 192.532 91.0063 191.609 93.0527C191.057 94.1751 190.023 94.9959 189.47 96.1182C189.243 96.6114 189.236 97.139 189.144 97.7289C189.041 98.3925 188.603 98.7775 188.154 99.2362C187.62 99.7572 186.972 100.034 186.263 100.226C185.712 100.366 185.134 100.201 184.544 100.109C183.291 99.9138 182.134 99.5826 180.938 99.0187C179.878 98.5515 178.926 97.8746 177.877 97.3337C177.174 96.9976 176.573 96.9795 175.812 97.0121C175.126 97.0562 174.4 96.8677 173.736 96.7643C172.557 96.5806 171.347 97.072 170.235 97.4274C169.44 97.6812 168.855 98.0432 168.434 98.8084C167.916 99.7095 167.778 100.594 166.614 100.791C165.916 100.909 165.14 100.561 164.499 100.31C163.932 100.071 163.257 100.041 162.667 99.9495C161.487 99.7657 160.439 99.2248 159.413 98.5364C158.263 97.6776 157.306 96.5468 156.497 95.4389C156.061 94.8424 155.37 94.4326 154.934 93.8361C154.3 93.0577 153.592 92.2677 153.032 91.5008C152.098 90.2225 151.091 88.9327 150.072 87.7167C149.29 86.9153 148.691 85.9156 148.08 84.9897C147.593 84.2342 147.374 83.2182 147.058 82.3383C146.414 80.652 145.952 78.7675 145.785 76.929C145.579 74.8578 145.322 72.6276 145.718 70.5745C145.993 68.8048 146.025 67.1482 146.3 65.3786C145.636 68.6737 145.359 71.4248 145.325 74.063C145.177 71.6231 145.323 69.2291 145.713 66.7221C146.793 59.791 149.783 53.6861 154.086 48.8431C155.917 46.787 157.946 44.9128 160.224 43.3794C167.445 38.2355 176.657 35.8185 186.095 37.2884C186.833 37.4032 187.644 37.5295 188.37 37.7181C192.317 38.5594 195.928 40.1036 199.238 42.1295C199.973 43.2259 200.686 44.4697 201.177 45.6791C201.403 46.1674 201.47 46.7065 201.696 47.1949C201.849 47.6717 202.121 47.8651 201.967 48.3698C201.847 48.6532 201.642 48.999 201.449 49.2709C200.931 50.1721 199.721 50.6634 198.83 51.0533C197.535 51.6069 196.162 51.6951 194.805 52.1635C193.925 52.4796 193.647 52.8139 192.953 53.3856C192.601 53.7084 192.198 53.8722 191.919 54.2064C191.095 55.1353 190.497 56.5526 190.387 57.7439C190.093 60.1149 191.672 62.0979 191.77 64.3788C191.84 66.3533 191.224 68.372 191.6 70.3187C191.931 72.5604 193.51 74.5434 195.085 76.0725C195.741 76.7035 196.336 77.2492 196.908 77.9425C197.406 78.6242 198.171 79.0455 198.499 79.8517C198.684 81.0889 197.825 82.239 197.21 83.2762Z" fill="url(#paint4_linear_179_1626)"/>
<path fill-rule="evenodd" clip-rule="evenodd" d="M195.269 27.5316C195.033 27.5316 194.916 27.5316 194.68 27.6493C194.092 27.767 193.503 27.6493 192.915 27.5316C192.444 27.4139 192.209 27.1785 191.62 27.1785C190.914 27.0608 190.326 26.8254 189.619 26.7077C188.913 26.59 188.325 26.3546 187.619 26.1193C187.03 25.8839 186.795 26.0016 186.324 26.1193C185.853 26.237 185.5 26.0016 185.029 25.8839C184.559 25.6485 183.97 25.6485 183.499 25.5308C182.087 25.2954 180.675 24.8246 179.262 24.4715C178.438 24.2361 177.615 24.2361 176.673 24.2361C175.967 24.2361 175.378 24.4715 174.672 24.4715C174.201 24.4715 173.848 24.3538 173.377 24.3538C172.907 24.2361 172.436 24.3538 171.965 24.3538C171.259 24.2361 170.906 24.1184 170.2 24.3538C169.611 24.4715 169.258 24.4715 168.67 24.5892C168.081 24.5892 167.375 24.8246 166.787 24.9423C165.727 25.1777 164.55 25.4131 163.491 25.4131C162.785 25.4131 161.843 25.1777 161.255 25.4131C160.902 25.5308 160.666 26.0016 160.313 26.237C159.725 26.8254 159.136 27.2962 158.666 27.8847C158.195 28.4732 157.724 29.1793 157.724 30.0032C157.724 30.7094 158.077 31.5332 158.43 32.1217C158.783 32.8279 158.901 33.4164 158.195 33.8872C157.371 34.4756 156.312 34.9464 155.37 35.2995C154.664 35.5349 154.075 35.6526 153.605 35.1818C153.369 35.0641 153.252 34.711 153.016 34.4756C152.781 34.3579 152.428 34.4756 152.192 34.5933C151.486 34.8287 150.78 35.0641 150.074 35.1818C149.603 35.2995 149.25 35.5349 148.779 35.5349C148.308 35.6526 147.955 35.2995 147.367 35.4172C146.661 35.5349 145.837 35.888 145.131 35.888C144.542 35.888 143.836 35.6526 143.365 35.4172C143.13 35.2995 143.012 35.0641 142.659 35.1818C142.424 35.1818 142.071 35.5349 141.953 35.7703C141.717 36.0057 141.717 36.3588 141.482 36.5941C141.247 36.9472 141.129 37.1826 140.894 37.5357C140.54 38.1242 140.187 38.7127 139.834 39.3011C139.599 39.6542 139.364 40.2427 139.01 40.5958C138.893 40.8312 138.54 40.9489 138.304 41.0666C137.716 41.4197 137.127 41.8904 136.539 42.2435C135.48 43.0674 134.42 44.009 133.361 44.8328C132.537 45.4213 131.36 45.7744 130.419 46.2452C129.83 46.4806 129.242 46.716 128.653 46.9513C128.418 47.069 128.065 47.069 127.947 47.3044C127.712 47.5398 127.594 47.7752 127.476 48.1283C127.006 48.7168 126.417 49.4229 126.064 50.1291C125.829 50.5999 125.711 50.953 125.475 51.4238C125.24 52.0122 124.887 52.6007 124.769 53.3069C124.299 54.6015 124.299 56.0139 123.71 57.3085C123.475 58.0147 123.004 58.7209 122.651 59.4271C122.062 60.604 121.945 62.0164 121.827 63.311C121.709 64.0172 121.827 64.9587 121.945 65.6649C122.062 66.4888 122.062 67.3126 122.062 68.1365C122.062 68.9604 121.474 69.9019 121.003 70.4904C120.532 71.0789 119.708 71.3143 119.12 71.9028C118.649 72.3735 118.061 72.8443 117.825 73.5505C117.708 73.7859 117.825 74.139 117.825 74.4921C117.708 75.1982 117.472 75.7867 117.472 76.4929C117.354 77.3168 117.354 78.1406 117.354 79.0822C117.354 79.553 117.354 79.9061 117.354 80.3768C117.354 80.8476 117.472 81.2007 117.59 81.5538C117.59 81.7892 117.59 82.1423 117.59 82.3777C117.59 82.7307 117.825 83.0838 117.825 83.3192C118.061 84.1431 118.178 84.8493 118.296 85.6731C118.414 86.3793 118.767 87.0855 118.885 87.7916C119.238 88.7332 119.355 89.6748 119.591 90.734C119.708 91.4402 119.708 92.2641 119.826 92.9702C119.944 93.5587 120.061 94.1472 120.061 94.7357C120.061 95.6772 119.826 96.5011 119.826 97.4427C119.826 98.9727 120.415 100.503 120.768 102.033C120.885 102.504 121.003 102.857 121.121 103.327C117.237 95.7949 115.118 87.2032 115.118 78.1406C115.118 67.0773 118.296 56.8378 123.828 48.246C126.182 44.5974 128.889 41.1843 132.066 38.2419C142.071 28.4732 155.841 22.4707 170.906 22.4707C172.083 22.4707 173.377 22.4707 174.554 22.5884C181.852 22.5884 188.913 24.4715 195.269 27.5316Z" fill="url(#paint5_linear_179_1626)"/>
<path opacity="0.3" fill-rule="evenodd" clip-rule="evenodd" d="M190.443 120.158C191.502 119.452 192.561 118.863 193.738 118.157C194.915 117.451 196.092 117.098 197.387 116.509C198.329 116.156 198.446 116.156 199.152 116.745C199.859 117.333 200.682 117.451 201.506 117.451C202.683 117.451 203.978 117.568 204.096 119.098C204.213 121.217 201.153 122.982 199.623 123.806C198.446 124.512 197.152 124.983 195.857 125.572C194.798 126.042 193.621 126.631 192.444 126.749C191.385 126.866 190.796 126.396 190.09 125.689C189.266 124.748 189.384 123.924 189.384 122.865C189.384 121.452 189.384 120.511 190.443 120.158Z" fill="url(#paint6_linear_179_1626)"/>
<path opacity="0.3" fill-rule="evenodd" clip-rule="evenodd" d="M207.038 42.1262C207.862 43.7739 208.451 46.0101 209.745 47.4225C210.451 48.1286 210.922 48.2463 211.864 48.2463C212.335 48.2463 213.158 48.364 213.629 48.2463C214.218 48.011 214.218 47.3048 214.218 46.7163C214.1 44.4801 212.688 42.4793 211.275 40.9492C210.334 39.89 208.921 38.713 207.391 38.9484C206.921 40.0077 206.803 41.0669 207.038 42.1262Z" fill="url(#paint7_linear_179_1626)"/>
<path fill-rule="evenodd" clip-rule="evenodd" d="M139.834 36.3583C139.246 36.5937 139.01 36.5937 138.422 37.0645C137.951 37.4176 137.48 37.7707 137.009 38.2415C136.421 38.8299 136.186 39.4184 136.068 40.0069C135.832 40.5954 135.715 41.3015 135.95 41.6546C136.068 41.7723 136.421 41.7723 136.774 41.7723C137.245 41.6546 137.716 41.3015 138.186 41.0662C138.775 40.7131 139.246 40.1246 139.716 39.5361C140.07 39.0653 140.187 38.5945 140.423 38.1238C140.54 37.7707 140.658 37.5353 140.776 37.2999C140.893 37.0645 140.893 36.8291 140.776 36.7114C140.658 36.3583 140.54 36.3583 139.834 36.3583Z" fill="#FFFF45"/>
<path fill-rule="evenodd" clip-rule="evenodd" d="M146.424 35.2989C146.188 35.5343 145.717 35.8874 146.07 36.1228C146.188 36.2405 146.306 36.1228 146.424 36.2405C146.541 36.2405 146.541 36.3582 146.659 36.2405C147.012 36.2405 146.894 35.1812 146.424 35.2989Z" fill="#FFFF45"/>
<path fill-rule="evenodd" clip-rule="evenodd" d="M148.19 38.8297C148.307 38.712 148.543 38.712 148.66 38.712C148.66 38.9474 148.896 39.3004 148.543 39.5358C148.307 39.6535 148.425 39.1828 148.307 39.1828L148.19 38.8297Z" fill="#FFFF45"/>
<path fill-rule="evenodd" clip-rule="evenodd" d="M151.603 38.8304C151.956 38.9481 152.192 39.0658 152.545 39.1835C152.662 39.0658 152.78 39.0658 152.898 39.0658C153.015 38.9481 153.133 38.7127 153.251 38.595C153.369 38.3596 153.251 38.1242 153.133 37.8888C153.015 37.7711 153.015 37.5357 152.898 37.418C152.78 37.3003 152.427 37.3003 152.309 37.418C152.074 37.5357 151.956 37.6534 151.839 37.8888C151.721 38.0065 151.603 38.3596 151.603 38.4773C151.603 38.7127 151.721 38.9481 151.956 39.0658L151.603 38.8304Z" fill="#FFFF45"/>
<path fill-rule="evenodd" clip-rule="evenodd" d="M154.428 103.327C154.781 103.445 155.016 103.562 155.369 103.68C155.487 103.562 155.605 103.562 155.722 103.562C155.84 103.445 155.958 103.209 156.075 103.091C156.193 102.856 156.075 102.621 155.958 102.385C155.84 102.268 155.84 102.032 155.722 101.915C155.605 101.797 155.252 101.797 155.134 101.915C154.898 102.032 154.781 102.15 154.663 102.385C154.545 102.503 154.428 102.856 154.428 102.974C154.428 103.209 154.545 103.445 154.781 103.562L154.428 103.327Z" fill="#FFFF45"/>
<path fill-rule="evenodd" clip-rule="evenodd" d="M142.54 41.8898C142.423 42.0075 142.305 42.1252 142.187 42.2429C142.305 42.3606 142.423 42.596 142.658 42.596C142.776 42.596 142.893 42.596 142.893 42.596C143.011 42.4783 142.893 42.3606 143.011 42.3606C143.129 42.1252 143.129 42.1252 143.011 41.8898C142.893 41.7721 142.893 41.7721 142.776 41.7721C142.658 41.7721 142.54 41.7721 142.423 41.8898H142.54Z" fill="#FFFF45"/>
<path fill-rule="evenodd" clip-rule="evenodd" d="M143.247 46.9504C143.247 46.9504 143.011 47.6578 143.247 47.422C143.483 47.3041 143.483 47.0683 143.247 46.9504C143.365 46.9504 143.365 46.9504 143.247 46.9504Z" fill="#FFFF45"/>
<path fill-rule="evenodd" clip-rule="evenodd" d="M138.656 55.4249C138.421 55.6603 138.421 55.778 138.303 56.1311C138.421 56.2488 138.538 56.2488 138.656 56.2488C138.892 56.2488 138.892 56.1311 138.892 56.0134C138.892 55.8957 139.009 55.778 138.892 55.6603C138.892 55.4249 138.774 55.3072 138.656 55.4249Z" fill="#FFFF45"/>
<path fill-rule="evenodd" clip-rule="evenodd" d="M145.718 42.479C145.836 42.5969 145.953 42.7148 145.953 42.8327C145.836 42.8327 145.718 42.7148 145.718 42.5969C145.718 42.3611 145.718 42.479 145.836 42.2432L145.718 42.479Z" fill="#FFFF45"/>
<path fill-rule="evenodd" clip-rule="evenodd" d="M144.069 35.8874C143.952 36.0051 143.834 36.1228 143.716 36.2404C143.834 36.3581 143.716 36.4758 143.952 36.4758C144.069 36.4758 144.187 36.3581 144.305 36.2404C144.422 36.1228 144.422 36.0051 144.422 35.8874C144.422 35.7697 144.422 35.5343 144.305 35.7697L144.069 35.8874Z" fill="#FFFF45"/>
<path fill-rule="evenodd" clip-rule="evenodd" d="M165.49 32.475C165.49 32.3573 165.608 32.1219 165.608 32.0042L165.726 31.8865C165.843 31.7688 165.843 31.7688 165.961 31.7688C166.079 31.7688 166.196 31.7688 166.432 31.8865C166.903 32.2396 165.726 32.5927 165.608 32.2396L165.49 32.475Z" fill="#FFFF45"/>
<path fill-rule="evenodd" clip-rule="evenodd" d="M169.492 34.0047C169.374 34.2401 169.257 34.5931 169.492 34.8285C169.727 34.9462 170.198 34.7108 170.316 34.5931C170.669 34.3578 171.022 33.7693 170.669 33.4162C170.551 33.1808 169.963 33.0631 169.727 33.0631C169.139 33.0631 169.021 33.7693 168.904 34.3578L169.492 34.0047Z" fill="#FFFF45"/>
<path fill-rule="evenodd" clip-rule="evenodd" d="M171.257 28.4728C171.14 28.002 171.14 27.5312 171.493 27.2958C171.728 27.1781 172.081 27.0604 172.317 27.2958C172.434 27.4135 172.552 27.6489 172.67 27.7666C172.787 28.002 172.787 28.002 172.67 28.2374C172.552 28.7082 172.434 29.0612 171.846 29.0612C171.14 29.0612 171.14 28.5905 171.14 27.8843V28.4728H171.257Z" fill="#FFFF45"/>
<path fill-rule="evenodd" clip-rule="evenodd" d="M177.261 36.7118C177.614 36.5941 177.967 36.4764 178.202 36.1233C177.967 36.0056 177.379 35.6525 177.261 36.1233V36.7118Z" fill="#FFFF45"/>
<path fill-rule="evenodd" clip-rule="evenodd" d="M156.545 110.86C156.899 110.742 157.252 110.625 157.487 110.272C157.252 110.154 156.663 109.801 156.545 110.272V110.86Z" fill="#FFC445"/>
<path fill-rule="evenodd" clip-rule="evenodd" d="M194.798 118.863C195.151 118.745 195.504 118.628 195.739 118.275C195.504 118.157 194.915 117.804 194.798 118.275V118.863Z" fill="#FFC445"/>
<path fill-rule="evenodd" clip-rule="evenodd" d="M181.85 43.891C182.203 43.4202 182.674 42.714 183.38 43.0671C183.733 43.3025 183.851 44.0087 183.498 44.2441C183.145 44.4795 182.91 44.5971 182.439 44.7148C182.203 44.8325 181.733 44.5971 181.85 44.1264V43.891Z" fill="#FFFF45"/>
<path fill-rule="evenodd" clip-rule="evenodd" d="M157.017 54.1307C157.37 53.6599 157.841 52.9538 158.547 53.3069C158.9 53.5422 159.018 54.2484 158.665 54.4838C158.312 54.7192 158.076 54.8369 157.606 54.9546C157.37 55.0723 156.899 54.8369 157.017 54.3661V54.1307Z" fill="#FFC445"/>
<path fill-rule="evenodd" clip-rule="evenodd" d="M198.21 35.8881C198.564 35.4173 199.034 34.7112 199.741 35.0642C200.094 35.2996 200.211 36.0058 199.858 36.2412C199.505 36.4766 199.27 36.5943 198.799 36.712C198.564 36.8297 198.093 36.5943 198.21 36.1235V35.8881Z" fill="#FFC445"/>
<path fill-rule="evenodd" clip-rule="evenodd" d="M175.141 73.9031C175.494 73.4323 175.965 72.7262 176.671 73.0793C177.025 73.3146 177.142 74.0208 176.789 74.2562C176.436 74.4916 176.201 74.6093 175.73 74.727C175.494 74.8447 175.024 74.6093 175.141 74.1385V73.9031Z" fill="#FFC445"/>
<path fill-rule="evenodd" clip-rule="evenodd" d="M155.015 38.712C154.545 38.9474 153.838 39.3005 153.721 40.0066C153.721 40.3597 153.838 40.5951 154.192 40.7128C154.427 40.8305 154.898 40.8305 155.251 40.7128C155.722 40.4774 156.192 40.1243 156.31 39.7712C156.428 39.4182 156.428 39.1828 156.31 38.9474C156.192 38.8297 156.075 38.5943 155.839 38.4766C155.251 38.2412 154.898 38.8297 154.427 39.0651L155.015 38.712Z" fill="#FFFF45"/>
<path fill-rule="evenodd" clip-rule="evenodd" d="M156.429 37.0645C156.664 37.1821 156.9 37.2998 157.017 37.5352C156.782 37.6529 156.547 37.7706 156.311 37.7706C155.958 37.6529 155.958 37.2998 155.958 37.0645C155.958 36.9468 156.311 36.5937 156.429 36.7114C156.547 36.7114 156.547 36.8291 156.547 36.9468C156.664 37.0645 156.664 37.0645 156.547 37.2998H156.429V37.0645Z" fill="#FFFF45"/>
<path fill-rule="evenodd" clip-rule="evenodd" d="M131.594 47.4214C131.124 47.8921 130.653 48.3629 130.418 48.9514C130.3 49.3045 130.535 49.3045 130.771 49.1868C131.359 49.0691 131.83 48.9514 132.418 48.8337C132.771 48.716 133.242 48.5983 133.36 48.3629C133.478 48.1275 133.595 47.7744 133.595 47.5391C133.595 47.186 133.242 47.0683 133.007 46.9506C132.301 46.7152 131.241 47.186 131.006 47.8921L131.594 47.4214Z" fill="#FFFF45"/>
<path fill-rule="evenodd" clip-rule="evenodd" d="M131.947 49.8931C132.3 49.8931 132.653 50.0108 133.006 50.1285C132.889 50.2462 132.889 50.3639 132.889 50.4816C132.771 50.7169 132.653 50.8346 132.418 50.9523C132.065 51.1877 131.594 51.1877 131.241 51.07C130.182 50.7169 131.829 49.54 132.065 49.8931H131.947Z" fill="#FFFF45"/>
<path fill-rule="evenodd" clip-rule="evenodd" d="M163.843 27.5313C164.196 27.2959 164.549 27.1782 164.902 27.0605C165.373 26.9428 165.844 26.9428 166.315 26.9428C166.55 26.9428 167.139 26.9428 166.903 27.2959C166.786 27.7667 165.844 28.1198 165.491 28.2375C164.902 28.4728 164.314 28.8259 163.608 28.9436C163.255 28.9436 162.666 29.0613 162.431 28.7082C162.313 28.3552 162.313 28.1198 162.549 27.8844C162.666 27.649 162.902 27.5313 163.255 27.4136C163.372 27.4136 164.196 27.1782 164.196 27.4136L163.843 27.5313Z" fill="#FFFF45"/>
<path fill-rule="evenodd" clip-rule="evenodd" d="M157.605 27.649C157.487 27.7667 156.193 28.4729 156.781 28.826C157.134 28.9437 157.723 28.9437 158.076 28.826C158.311 28.7083 158.664 28.4729 158.429 28.1198C158.076 27.4137 157.134 27.8844 156.664 28.1198L157.605 27.649Z" fill="#FFFF45"/>
<path fill-rule="evenodd" clip-rule="evenodd" d="M140.068 73.7859C140.186 74.2567 140.304 74.8452 140.775 75.1983C141.245 75.5514 141.834 75.4337 142.187 75.0806C142.54 74.8452 142.893 74.6098 143.128 74.4921C143.364 74.3744 143.482 74.3744 143.482 74.0213C143.482 73.6682 143.246 73.3152 143.011 73.0798C142.775 72.8444 142.422 72.4913 142.069 72.3736C141.363 72.1382 140.068 72.3736 140.068 73.3152V73.7859Z" fill="#FFD32F"/>
<path fill-rule="evenodd" clip-rule="evenodd" d="M180.086 74.374C180.203 74.8448 180.321 75.4333 180.792 75.7864C181.262 76.1394 181.851 76.0218 182.204 75.6687C182.557 75.4333 182.91 75.1979 183.146 75.0802C183.381 74.9625 183.499 74.9625 183.499 74.6094C183.499 74.2563 183.263 73.9032 183.028 73.6678C182.793 73.4324 182.439 73.0794 182.086 72.9617C181.38 72.7263 180.086 72.9617 180.086 73.9032V74.374Z" fill="#FFBA00"/>
<path fill-rule="evenodd" clip-rule="evenodd" d="M123.121 94.5007C123.121 94.5007 122.65 96.5015 124.063 99.0908C125.475 101.68 126.534 101.445 126.534 101.445C126.534 101.445 125.24 96.7369 123.121 94.5007Z" fill="#FFFF59"/>
<path fill-rule="evenodd" clip-rule="evenodd" d="M214.1 67.0774C214.1 67.0774 212.452 71.7852 212.217 72.4914C212.217 72.3737 214.806 71.6675 214.1 67.0774Z" fill="#FFFF59"/>
<path fill-rule="evenodd" clip-rule="evenodd" d="M222.927 68.4897C222.927 68.4897 221.75 69.3136 221.162 71.5498C221.162 71.5498 222.574 72.2559 222.927 68.4897Z" fill="#FFFF59"/>
<path opacity="0.7" d="M170.3 140.681C170.3 141.63 169.35 142.58 168.399 142.58C167.449 142.58 166.498 141.63 166.498 140.681C166.498 139.731 167.449 138.782 168.399 138.782C169.35 138.782 170.3 139.731 170.3 140.681Z" fill="white"/>
<path opacity="0.7" d="M42.4674 42.1424C42.4674 43.0918 41.5169 44.0412 40.5663 44.0412C39.6158 44.0412 38.6653 43.0918 38.6653 42.1424C38.6653 41.1929 39.6158 40.2435 40.5663 40.2435C41.5169 40.2435 42.4674 41.1929 42.4674 42.1424Z" fill="white"/>
<path opacity="0.7" d="M241.115 116.946C241.115 116.471 241.59 115.996 242.065 115.996C242.541 115.996 243.016 116.471 243.016 116.946C243.016 117.42 242.541 117.895 242.065 117.895C241.59 117.895 241.115 117.42 241.115 116.946Z" fill="white"/>
<path opacity="0.7" d="M61.5491 75.913C61.5491 75.4383 62.0244 74.9636 62.4997 74.9636C62.975 74.9636 63.4503 75.4383 63.4503 75.913C63.4503 76.3878 62.975 76.8625 62.4997 76.8625C62.0244 76.8625 61.5491 76.3878 61.5491 75.913Z" fill="white"/>
<g opacity="0.7">
<path opacity="0.7" d="M239.767 43.9317L239.292 33.9625L228.836 33.013L238.816 32.5383L239.767 22.0943L240.717 32.5383L250.698 33.013L240.717 33.9625L239.767 43.9317Z" fill="white"/>
<path opacity="0.7" d="M235.49 37.7599L238.817 33.4874L235.49 28.7401L239.768 32.5379L244.52 28.2654L240.718 33.0126L244.52 37.7599L239.768 33.9621L235.49 37.7599Z" fill="white"/>
</g>
<path opacity="0.3" d="M195 85.6499C195 84.4058 196.248 83.1616 197.496 83.1616C198.743 83.1616 199.991 84.4058 199.991 85.6499C199.991 86.8941 198.743 88.1382 197.496 88.1382C196.248 88.1382 195 86.8941 195 85.6499Z" fill="white"/>
<path opacity="0.4" d="M433.139 133.512C433.139 134.756 431.891 136 430.644 136C429.396 136 428.148 134.756 428.148 133.512C428.148 132.268 429.396 131.023 430.644 131.023C431.891 131.023 433.139 132.268 433.139 133.512Z" fill="white"/>
<path opacity="0.4" d="M485.129 31.077C485.129 31.9064 484.297 32.7358 483.465 32.7358C482.634 32.7358 481.802 31.9064 481.802 31.077C481.802 30.2475 482.634 29.4181 483.465 29.4181C484.713 29.4181 485.129 30.2475 485.129 31.077Z" fill="white"/>
<path opacity="0.4" d="M595.768 12.8294C595.768 12.4147 596.184 12 596.6 12C597.016 12 597.432 12.4147 597.432 12.8294C597.432 13.2442 597.016 13.6589 596.6 13.6589C596.184 13.6589 595.768 13.6589 595.768 12.8294Z" fill="white"/>
<path opacity="0.4" d="M533.378 121.9C533.378 121.485 533.794 121.07 534.21 121.07C534.626 121.07 535.042 121.485 535.042 121.9C535.042 122.315 534.626 122.729 534.21 122.729C533.794 122.729 533.378 122.315 533.378 121.9Z" fill="white"/>
<path opacity="0.4" d="M585.547 80.3852C585.547 79.9705 585.963 79.5557 586.379 79.5557C586.795 79.5557 587.211 79.9705 587.211 80.3852C587.211 80.7999 586.795 81.2146 586.379 81.2146C585.963 81.2146 585.547 80.7999 585.547 80.3852Z" fill="white"/>
<path opacity="0.4" d="M439.143 54.19C439.143 53.7753 439.559 53.3606 439.975 53.3606C440.391 53.3606 440.807 53.7753 440.807 54.19C440.807 54.6048 440.391 55.0195 439.975 55.0195C439.559 55.0195 439.143 54.6048 439.143 54.19Z" fill="white"/>
<path opacity="0.4" d="M543.776 19.4645C543.776 18.2203 545.024 16.9762 546.272 16.9762C547.52 16.9762 548.767 18.2203 548.767 19.4645C548.767 20.7086 547.52 21.9528 546.272 21.9528C545.024 21.9528 543.776 20.7086 543.776 19.4645Z" fill="white"/>
<path opacity="0.4" d="M617.397 47.6656C617.397 46.8362 618.229 46.0067 619.061 46.0067C619.893 46.0067 620.725 46.8362 620.725 47.6656C620.725 48.495 619.893 49.3244 619.061 49.3244C618.229 49.3244 617.397 48.495 617.397 47.6656Z" fill="white"/>
<path opacity="0.4" d="M403.108 48.8154C403.108 49.6449 402.276 50.4743 401.444 50.4743C400.612 50.4743 399.78 49.6449 399.78 48.8154C399.78 47.986 400.612 47.1566 401.444 47.1566C402.276 47.1566 403.108 47.986 403.108 48.8154Z" fill="white"/>
<path opacity="0.4" d="M576.956 114.163C576.956 113.748 577.372 113.333 577.788 113.333C578.204 113.333 578.62 113.748 578.62 114.163C578.62 114.578 578.204 114.992 577.788 114.992C577.372 114.992 576.956 114.578 576.956 114.163Z" fill="white"/>
<path opacity="0.4" d="M419.807 78.3172C419.807 77.9025 420.223 77.4877 420.639 77.4877C421.055 77.4877 421.471 77.9025 421.471 78.3172C421.471 78.7319 421.055 79.1466 420.639 79.1466C420.223 79.1466 419.807 78.7319 419.807 78.3172Z" fill="white"/>
<g opacity="0.4">
<path opacity="0.7" d="M575.777 50.3785L575.361 41.6694L566.21 40.84L574.945 40.4253L575.777 31.3015L576.609 40.4253L585.343 40.84L576.609 41.6694L575.777 50.3785Z" fill="white"/>
<path opacity="0.7" d="M572.034 44.9869L574.945 41.2545L572.034 37.1073L575.777 40.4251L579.937 36.6926L576.609 40.8398L579.937 44.9869L575.777 41.6692L572.034 44.9869Z" fill="white"/>
</g>
<g opacity="0.4">
<path opacity="0.7" d="M466.665 69.0026L466.489 65.3232L462.623 64.9728L466.313 64.7976L466.665 60.9429L467.016 64.7976L470.706 64.9728L467.016 65.3232L466.665 69.0026Z" fill="white"/>
<path opacity="0.7" d="M465.084 66.7249L466.314 65.148L465.084 63.3958L466.665 64.7975L468.422 63.2206L467.017 64.9727L468.422 66.7249L466.665 65.3232L465.084 66.7249Z" fill="white"/>
</g>
<g opacity="0.4">
<path opacity="0.7" d="M369.983 37.2929L369.808 33.6135L365.942 33.2631L369.632 33.0878L369.983 29.2332L370.335 33.0878L374.025 33.2631L370.335 33.6135L369.983 37.2929Z" fill="white"/>
<path opacity="0.7" d="M368.402 35.0151L369.632 33.4382L368.402 31.6861L369.984 33.0878L371.741 31.5109L370.335 33.263L371.741 35.0151L369.984 33.6134L368.402 35.0151Z" fill="white"/>
</g>
<path opacity="0.4" d="M631 20.5522C631 21.3816 630.168 22.2111 629.336 22.2111C628.504 22.2111 627.673 21.3816 627.673 20.5522C627.673 19.7228 628.504 18.8933 629.336 18.8933C630.584 18.8933 631 19.7228 631 20.5522Z" fill="white"/>
<g opacity="0.7">
<path opacity="0.7" d="M341.362 97.5592L340.129 71.7387L313 69.2796L338.896 68.0501L341.362 41L343.829 68.0501L369.725 69.2796L343.829 71.7387L341.362 97.5592Z" fill="white"/>
<path opacity="0.7" d="M330.266 81.5743L338.898 70.5084L330.266 58.2129L341.364 68.0493L353.696 56.9834L343.83 69.2788L353.696 81.5743L341.364 71.738L330.266 81.5743Z" fill="white"/>
</g>
<g opacity="0.7">
<path opacity="0.7" d="M115.091 65.2507L114.89 61.0388L110.473 60.6377L114.689 60.4371L115.091 56.0247L115.492 60.4371L119.709 60.6377L115.492 61.0388L115.091 65.2507Z" fill="white"/>
<path opacity="0.7" d="M113.284 62.6433L114.69 60.8382L113.284 58.8326L115.091 60.4371L117.099 58.632L115.493 60.6377L117.099 62.6433L115.091 61.0388L113.284 62.6433Z" fill="white"/>
</g>
<g opacity="0.7">
<path opacity="0.7" d="M4.61817 28.9527L4.41738 24.7409L-2.86102e-06 24.3397L4.21658 24.1392L4.61817 19.7268L5.01976 24.1392L9.23636 24.3397L5.01976 24.7409L4.61817 28.9527Z" fill="white"/>
<path opacity="0.7" d="M2.81162 26.3454L4.21715 24.5403L2.81162 22.5347L4.61874 24.1392L6.62665 22.3341L5.02033 24.3398L6.62665 26.3454L4.61874 24.7409L2.81162 26.3454Z" fill="white"/>
</g>
<path opacity="0.7" d="M302.867 9.78955C302.867 10.739 301.917 11.6884 300.966 11.6884C300.016 11.6884 299.065 10.739 299.065 9.78955C299.065 8.84009 300.016 7.89062 300.966 7.89062C302.392 7.89062 302.867 8.84009 302.867 9.78955Z" fill="white"/>
<defs>
<radialGradient id="paint0_radial_179_1626" cx="0" cy="0" r="1" gradientUnits="userSpaceOnUse" gradientTransform="translate(136.317 51.63) scale(89.5686)">
<stop offset="0.00558659" stop-color="#FFB80B"/>
<stop offset="0.258" stop-color="#FFB60C"/>
<stop offset="0.384" stop-color="#FEAE10"/>
<stop offset="0.4821" stop-color="#FCA117"/>
<stop offset="0.5656" stop-color="#FA8E21"/>
<stop offset="0.6392" stop-color="#F7762E"/>
<stop offset="0.662" stop-color="#F66D33"/>
<stop offset="0.7209" stop-color="#EF6836"/>
<stop offset="0.8061" stop-color="#DC593D"/>
<stop offset="0.9068" stop-color="#BD4049"/>
<stop offset="0.9832" stop-color="#A02A54"/>
</radialGradient>
<linearGradient id="paint1_linear_179_1626" x1="119.762" y1="94.1119" x2="146.76" y2="94.1119" gradientUnits="userSpaceOnUse">
<stop offset="0.0111732" stop-color="#FFA90B"/>
<stop offset="0.3713" stop-color="#FFA60E"/>
<stop offset="0.6354" stop-color="#FF9D16"/>
<stop offset="0.868" stop-color="#FF8D25"/>
<stop offset="1" stop-color="#FF8031"/>
</linearGradient>
<linearGradient id="paint2_linear_179_1626" x1="123.42" y1="61.8932" x2="134.17" y2="61.5522" gradientUnits="userSpaceOnUse">
<stop offset="0.0111732" stop-color="#FFA90B"/>
<stop offset="0.3713" stop-color="#FFA60E"/>
<stop offset="0.6354" stop-color="#FF9D16"/>
<stop offset="0.868" stop-color="#FF8D25"/>
<stop offset="1" stop-color="#FF8031"/>
</linearGradient>
<linearGradient id="paint3_linear_179_1626" x1="124.082" y1="61.8722" x2="133.484" y2="61.574" gradientUnits="userSpaceOnUse">
<stop offset="0.0111732" stop-color="#FFE00B"/>
<stop offset="0.3061" stop-color="#FFDD0D"/>
<stop offset="0.5224" stop-color="#FFD412"/>
<stop offset="0.7136" stop-color="#FFC41B"/>
<stop offset="0.8891" stop-color="#FFAD27"/>
<stop offset="1" stop-color="#FF9B31"/>
</linearGradient>
<linearGradient id="paint4_linear_179_1626" x1="145.84" y1="64.3516" x2="199.566" y2="72.7188" gradientUnits="userSpaceOnUse">
<stop offset="0.0111732" stop-color="#FFE00B"/>
<stop offset="0.3061" stop-color="#FFDD0D"/>
<stop offset="0.5224" stop-color="#FFD412"/>
<stop offset="0.7136" stop-color="#F67C27"/>
<stop offset="0.8891" stop-color="#ED6930"/>
<stop offset="1" stop-color="#E76332"/>
</linearGradient>
<linearGradient id="paint5_linear_179_1626" x1="115.093" y1="62.4104" x2="195.302" y2="62.4104" gradientUnits="userSpaceOnUse">
<stop offset="0.0111732" stop-color="#FFE00B"/>
<stop offset="0.3061" stop-color="#FFDD0D"/>
<stop offset="0.5224" stop-color="#FFD412"/>
<stop offset="0.7136" stop-color="#FFC41B"/>
<stop offset="0.8891" stop-color="#FFAD27"/>
<stop offset="1" stop-color="#FF9B31"/>
</linearGradient>
<linearGradient id="paint6_linear_179_1626" x1="189.423" y1="121.506" x2="204.131" y2="121.506" gradientUnits="userSpaceOnUse">
<stop offset="0.0111732" stop-color="#FFE00B"/>
<stop offset="0.3061" stop-color="#FFDD0D"/>
<stop offset="0.5224" stop-color="#FFD412"/>
<stop offset="0.7136" stop-color="#FFC41B"/>
<stop offset="0.8891" stop-color="#FFAD27"/>
<stop offset="1" stop-color="#FF9B31"/>
</linearGradient>
<linearGradient id="paint7_linear_179_1626" x1="206.887" y1="43.6585" x2="214.126" y2="43.6585" gradientUnits="userSpaceOnUse">
<stop offset="0.0111732" stop-color="#FFE00B"/>
<stop offset="0.3061" stop-color="#FFDD0D"/>
<stop offset="0.5224" stop-color="#FFD412"/>
<stop offset="0.7136" stop-color="#FFC41B"/>
<stop offset="0.8891" stop-color="#FFAD27"/>
<stop offset="1" stop-color="#FF9B31"/>
</linearGradient>
</defs>
</svg>
