<svg width="23" height="23" viewBox="0 0 23 23" fill="none" xmlns="http://www.w3.org/2000/svg">
<path d="M11.5 23C17.8513 23 23 17.8513 23 11.5C23 5.14872 17.8513 0 11.5 0C5.14873 0 0 5.14872 0 11.5C0 17.8513 5.14873 23 11.5 23Z" fill="white"/>
<path d="M10.3749 5.36096C7.00273 5.36096 6.0516 5.36096 5.87867 5.36096C5.7922 5.36096 5.5328 5.62036 5.5328 5.70683C5.5328 5.79329 4.23581 11.3271 4.23581 11.4136C4.23581 11.5001 5.44634 17.2068 5.5328 17.3798C5.5328 17.4662 5.7922 17.6392 5.87867 17.6392H6.65686L10.3749 5.36096Z" fill="url(#paint0_linear_179_1723)"/>
<path d="M14.3528 5.36096C13.4017 5.36096 11.3265 5.36096 11.1536 5.36096C10.8942 5.36096 10.5483 5.79329 10.5483 6.05269C10.4618 6.31209 8.99191 11.4136 8.99191 11.4136C8.99191 11.4136 9.51071 16.9474 9.59718 17.2068C9.68364 17.4662 10.6348 17.7256 10.8077 17.6392C10.8942 17.2068 14.3528 5.36096 14.3528 5.36096Z" fill="url(#paint1_linear_179_1723)"/>
<path d="M15.3919 11.5C15.6513 11.4135 15.8243 11.5864 15.9107 11.5864C16.0837 11.7594 16.3431 11.9323 16.516 12.1052C16.516 8.99246 16.516 5.70674 16.516 5.62028C16.516 5.53381 16.3431 5.27441 16.2566 5.27441C16.0837 5.27441 15.219 5.27441 14.8731 5.27441L13.0573 11.4135C13.0573 11.4135 14.0085 15.391 14.1814 16.515C14.5273 17.4661 15.5649 17.6391 15.9107 17.6391C16.2566 17.6391 16.516 17.3797 16.516 17.3797C16.516 17.3797 16.516 15.8233 16.516 13.8346C15.3919 13.4022 14.8731 12.7105 14.7867 12.624C14.7002 12.4511 14.7002 12.0188 14.7867 12.0188C14.7867 11.9323 15.1325 11.5864 15.3919 11.5ZM15.3919 8.3872C15.5649 8.3872 15.7378 8.56013 15.7378 8.73306C15.7378 8.90599 15.5649 9.07893 15.3919 9.07893C15.219 9.07893 15.0461 8.90599 15.0461 8.73306C15.0461 8.47366 15.219 8.3872 15.3919 8.3872Z" fill="url(#paint2_linear_179_1723)"/>
<path d="M20.4035 12.7106C20.0576 13.4887 19.1929 14.2669 18.0689 14.2669C17.4636 14.1805 16.9448 14.094 16.5125 13.9211C16.5125 13.4023 16.5125 12.797 16.5125 12.1918C16.9448 12.5376 17.6365 12.797 18.5877 12.97C19.5388 12.797 19.5388 12.1918 19.5388 11.8459C19.5388 11.5 19.2794 11.2406 18.9335 11.1542C18.3283 11.0677 18.1553 11.1542 17.723 11.673C17.723 10.6354 19.1065 10.2895 19.8847 10.8083C20.6629 11.1542 20.7493 11.9324 20.4035 12.7106Z" fill="url(#paint3_linear_179_1723)"/>
<defs>
<linearGradient id="paint0_linear_179_1723" x1="6.72769" y1="9.96529" x2="10.7486" y2="10.073" gradientUnits="userSpaceOnUse">
<stop stop-color="#682878"/>
<stop offset="1" stop-color="#CC555C"/>
</linearGradient>
<linearGradient id="paint1_linear_179_1723" x1="11.1679" y1="9.97165" x2="14.6797" y2="10.0537" gradientUnits="userSpaceOnUse">
<stop stop-color="#682878"/>
<stop offset="1" stop-color="#CC555C"/>
</linearGradient>
<linearGradient id="paint2_linear_179_1723" x1="14.4612" y1="9.91117" x2="16.7276" y2="9.94512" gradientUnits="userSpaceOnUse">
<stop stop-color="#682878"/>
<stop offset="1" stop-color="#CC555C"/>
</linearGradient>
<linearGradient id="paint3_linear_179_1723" x1="18.1703" y1="11.9563" x2="20.838" y2="12.1142" gradientUnits="userSpaceOnUse">
<stop stop-color="#682878"/>
<stop offset="1" stop-color="#CC555C"/>
</linearGradient>
</defs>
</svg>
