<svg width="40" height="40" viewBox="0 0 40 40" fill="none" xmlns="http://www.w3.org/2000/svg">
<path d="M20.0001 6.25L19.6088 6.6L5.35005 21.0162L4.49255 21.8762L5.3513 22.7763L17.2263 34.6513L18.1263 35.51L18.9888 34.6513L33.4013 20.3925L33.7501 20V6.25H20.0001ZM21.0551 8.75H31.2501V18.945L18.1251 31.9925L8.00755 21.875L21.0551 8.75ZM27.5001 11.25C27.1685 11.25 26.8506 11.3817 26.6162 11.6161C26.3817 11.8505 26.2501 12.1685 26.2501 12.5C26.2501 12.8315 26.3817 13.1495 26.6162 13.3839C26.8506 13.6183 27.1685 13.75 27.5001 13.75C27.8316 13.75 28.1495 13.6183 28.3839 13.3839C28.6184 13.1495 28.7501 12.8315 28.7501 12.5C28.7501 12.1685 28.6184 11.8505 28.3839 11.6161C28.1495 11.3817 27.8316 11.25 27.5001 11.25Z" fill="url(#paint0_linear_57_688)"/>
<defs>
<linearGradient id="paint0_linear_57_688" x1="16.3683" y1="17.2225" x2="35.4897" y2="18.2466" gradientUnits="userSpaceOnUse">
<stop stop-color="#682878"/>
<stop offset="1" stop-color="#CC555C"/>
</linearGradient>
</defs>
</svg>
