<svg width="1440" height="320" viewBox="0 0 1440 320" fill="none" xmlns="http://www.w3.org/2000/svg">
<mask id="mask0_179_482" style="mask-type:alpha" maskUnits="userSpaceOnUse" x="0" y="0" width="1440" height="320">
<rect width="1440" height="320" fill="url(#paint0_linear_179_482)"/>
</mask>
<g mask="url(#mask0_179_482)">
<path opacity="0.010101" d="M1058.71 141.407C1053.14 135.642 1051.92 126.947 1055.68 119.871L1152.92 -63.0209C1156.69 -70.0975 1164.58 -73.9464 1172.47 -72.5547L1376.46 -36.5856C1384.36 -35.1938 1390.45 -28.878 1391.57 -20.9413L1420.4 184.181C1421.51 192.117 1417.39 199.87 1410.19 203.383L1224.01 294.186C1216.81 297.7 1208.16 296.175 1202.6 290.41L1058.71 141.407Z" stroke="url(#paint1_linear_179_482)" stroke-width="3"/>
<path opacity="0.020202" d="M1056.24 138.812C1050.78 132.951 1049.71 124.236 1053.59 117.226L1153.81 -63.5635C1157.69 -70.5733 1165.65 -74.2839 1173.52 -72.7546L1376.43 -33.3131C1384.29 -31.7838 1390.28 -25.3625 1391.26 -17.4076L1416.45 187.758C1417.43 195.713 1413.17 203.393 1405.91 206.78L1218.57 294.138C1211.3 297.525 1202.68 295.85 1197.22 289.988L1056.24 138.812Z" stroke="url(#paint2_linear_179_482)" stroke-width="3"/>
<path opacity="0.030303" d="M1053.84 136.22C1048.48 130.264 1047.56 121.532 1051.57 114.591L1154.71 -64.0486C1158.72 -70.9895 1166.74 -74.5606 1174.58 -72.8943L1376.35 -30.0072C1384.18 -28.3408 1390.06 -21.816 1390.9 -13.8452L1412.46 191.301C1413.3 199.271 1408.91 206.875 1401.59 210.135L1213.14 294.035C1205.82 297.295 1197.23 295.469 1191.87 289.513L1053.84 136.22Z" stroke="url(#paint3_linear_179_482)" stroke-width="3"/>
<path opacity="0.040404" d="M1051.5 133.632C1046.24 127.583 1045.48 118.837 1049.61 111.967L1155.62 -64.4766C1159.75 -71.3465 1167.83 -74.7772 1175.64 -72.9743L1376.21 -26.6693C1384.02 -24.8664 1389.78 -18.24 1390.48 -10.2558L1408.42 194.806C1409.12 202.79 1404.6 210.316 1397.22 213.447L1207.74 293.877C1200.36 297.009 1191.81 295.034 1186.55 288.985L1051.5 133.632Z" stroke="url(#paint4_linear_179_482)" stroke-width="3"/>
<path opacity="0.050505" d="M1049.22 131.048C1044.07 124.908 1043.45 116.15 1047.7 109.353L1156.55 -64.8479C1160.8 -71.6448 1168.94 -74.9338 1176.72 -72.9949L1376.03 -23.3008C1383.81 -21.3619 1389.45 -14.636 1390.01 -6.64081L1404.34 198.273C1404.9 206.268 1400.25 213.714 1392.81 216.716L1202.36 293.665C1194.93 296.668 1186.41 294.544 1181.26 288.404L1049.22 131.048Z" stroke="url(#paint5_linear_179_482)" stroke-width="3"/>
<path opacity="0.0606061" d="M1046.99 128.468C1041.95 122.24 1041.49 113.472 1045.86 106.75L1157.5 -65.163C1161.86 -71.8846 1170.06 -75.0311 1177.8 -72.9568L1375.8 -19.9033C1383.54 -17.829 1389.07 -11.0056 1389.49 -3.00189L1400.21 201.7C1400.63 209.704 1395.85 217.067 1388.37 219.939L1197 293.399C1189.52 296.271 1181.04 293.998 1175.99 287.77L1046.99 128.468Z" stroke="url(#paint6_linear_179_482)" stroke-width="3"/>
<path opacity="0.0707071" d="M1044.83 125.895C1039.89 119.58 1039.59 110.805 1044.07 104.16L1158.45 -65.4206C1162.93 -72.0651 1171.18 -75.068 1178.89 -72.8589L1375.52 -16.4768C1383.22 -14.2677 1388.62 -7.34891 1388.9 0.660888L1396.04 205.088C1396.32 213.098 1391.41 220.377 1383.88 223.118L1191.67 293.079C1184.13 295.82 1175.69 293.4 1170.76 287.084L1044.83 125.895Z" stroke="url(#paint7_linear_179_482)" stroke-width="3"/>
<path opacity="0.0808081" d="M1042.72 123.331C1037.89 116.93 1037.74 108.151 1042.34 101.586L1159.42 -65.6198C1164.01 -72.1851 1172.31 -75.0436 1179.98 -72.7003L1375.18 -13.0212C1382.85 -10.6779 1388.13 -3.66587 1388.27 4.34758L1391.83 208.437C1391.97 216.451 1386.94 223.643 1379.36 226.252L1186.36 292.707C1178.78 295.317 1170.38 292.75 1165.56 286.349L1042.72 123.331Z" stroke="url(#paint8_linear_179_482)" stroke-width="3"/>
<path opacity="0.0909091" d="M1040.66 120.775C1035.95 114.291 1035.95 105.51 1040.66 99.0265L1160.39 -65.7619C1165.1 -72.2459 1173.45 -74.9591 1181.07 -72.4825L1374.79 -9.53891C1382.42 -7.06223 1387.58 0.0409851 1387.58 8.05566V211.745C1387.58 219.76 1382.42 226.863 1374.79 229.34L1181.07 292.283C1173.45 294.76 1165.1 292.047 1160.39 285.563L1040.66 120.775Z" stroke="url(#paint9_linear_179_482)" stroke-width="3"/>
<path opacity="0.10101" d="M1038.67 118.227C1034.07 111.662 1034.23 102.883 1039.05 96.4822L1161.37 -65.8474C1166.2 -72.2482 1174.59 -74.8153 1182.17 -72.2059L1374.36 -6.03142C1381.93 -3.42208 1386.97 3.77012 1386.83 11.7836L1383.28 215.011C1383.14 223.025 1377.86 230.037 1370.2 232.38L1175.82 291.807C1168.15 294.15 1159.85 291.292 1155.25 284.727L1038.67 118.227Z" stroke="url(#paint10_linear_179_482)" stroke-width="3"/>
<path opacity="0.111111" d="M1036.73 115.691C1032.25 109.046 1032.56 100.271 1037.49 93.9558L1162.36 -65.8745C1167.3 -72.1901 1175.74 -74.6103 1183.27 -71.8691L1373.87 -2.498C1381.4 0.243192 1386.31 7.52219 1386.03 15.532L1378.95 218.236C1378.67 226.246 1373.26 233.165 1365.56 235.374L1170.59 291.281C1162.88 293.49 1154.63 290.487 1150.15 283.842L1036.73 115.691Z" stroke="url(#paint11_linear_179_482)" stroke-width="3"/>
<path opacity="0.121212" d="M1034.85 113.165C1030.49 106.443 1030.95 97.6749 1035.99 91.4463L1163.36 -65.8454C1168.41 -72.074 1176.89 -74.3464 1184.37 -71.4742L1373.32 1.05826C1380.81 3.93044 1385.59 11.294 1385.17 19.2977L1374.58 221.417C1374.16 229.421 1368.63 236.244 1360.89 238.318L1165.39 290.702C1157.65 292.777 1149.45 289.63 1145.09 282.909L1034.85 113.165Z" stroke="url(#paint12_linear_179_482)" stroke-width="3"/>
<path opacity="0.131313" d="M1033.03 110.653C1028.78 103.856 1029.39 95.0974 1034.54 88.9578L1164.37 -65.7568C1169.52 -71.8964 1178.04 -74.0205 1185.47 -71.0182L1372.73 4.6395C1380.16 7.64183 1384.81 15.0877 1384.25 23.0829L1370.16 224.556C1369.6 232.552 1363.96 239.278 1356.18 241.216L1160.22 290.076C1152.44 292.015 1144.3 288.726 1140.05 281.929L1033.03 110.653Z" stroke="url(#paint13_linear_179_482)" stroke-width="3"/>
<path opacity="0.141414" d="M1031.26 108.154C1027.13 101.284 1027.9 92.537 1033.15 86.4883L1165.37 -65.6118C1170.63 -71.6605 1179.19 -73.6356 1186.56 -70.5041L1372.08 8.24178C1379.46 11.3733 1383.98 18.8993 1383.28 26.8835L1365.71 227.651C1365.02 235.635 1359.26 242.262 1351.45 244.065L1155.08 289.4C1147.27 291.203 1139.19 287.772 1135.06 280.902L1031.26 108.154Z" stroke="url(#paint14_linear_179_482)" stroke-width="3"/>
<path opacity="0.151515" d="M1029.55 105.669C1025.54 98.7277 1026.46 89.9957 1031.82 84.0397L1166.39 -65.4094C1171.75 -71.3655 1180.34 -73.1909 1187.66 -69.9311L1371.38 11.8651C1378.7 15.125 1383.09 22.7287 1382.25 30.6995L1361.23 230.701C1360.39 238.672 1354.52 245.197 1346.68 246.863L1149.97 288.675C1142.13 290.341 1134.11 286.77 1130.1 279.829L1029.55 105.669Z" stroke="url(#paint15_linear_179_482)" stroke-width="3"/>
<path opacity="0.161616" d="M1027.89 103.199C1024 96.1891 1025.07 87.4745 1030.54 81.613L1167.4 -65.1496C1172.87 -71.0112 1181.48 -72.6865 1188.75 -69.2993L1370.62 15.5085C1377.88 18.8957 1382.14 26.5749 1381.16 34.5298L1356.71 233.707C1355.73 241.661 1349.74 248.083 1341.87 249.612L1144.89 287.902C1137.02 289.431 1129.06 285.721 1125.18 278.711L1027.89 103.199Z" stroke="url(#paint16_linear_179_482)" stroke-width="3"/>
<path opacity="0.171717" d="M1026.29 100.746C1022.53 93.6692 1023.75 84.9746 1029.32 79.2093L1168.42 -64.8324C1173.98 -70.5977 1182.63 -72.1223 1189.83 -68.6089L1369.81 19.1712C1377.01 22.6846 1381.13 30.4369 1380.02 38.3736L1352.15 236.666C1351.04 244.603 1344.94 250.919 1337.04 252.311L1139.84 287.082C1131.95 288.474 1124.06 284.625 1120.3 277.548L1026.29 100.746Z" stroke="url(#paint17_linear_179_482)" stroke-width="3"/>
<path opacity="0.181818" d="M1024.74 98.3099C1021.1 91.1688 1022.48 82.4969 1028.14 76.8296L1169.43 -64.4577C1175.1 -70.125 1183.77 -71.4984 1190.91 -67.8599L1368.94 22.8522C1376.08 26.4908 1380.07 34.3138 1378.82 42.2299L1347.56 239.58C1346.31 247.496 1340.1 253.705 1332.18 254.959L1134.83 286.216C1126.91 287.47 1119.09 283.484 1115.45 276.342L1024.74 98.3099Z" stroke="url(#paint18_linear_179_482)" stroke-width="3"/>
<path opacity="0.191919" d="M1023.25 95.8927C1019.74 88.6891 1021.26 80.0425 1027.03 74.475L1170.45 -64.0256C1176.21 -69.5931 1184.91 -70.815 1191.98 -67.0524L1368.02 26.5507C1375.1 30.3133 1378.95 38.2048 1377.56 46.0977L1342.94 242.448C1341.54 250.341 1335.23 256.44 1327.29 257.556L1129.85 285.304C1121.92 286.419 1114.16 282.297 1110.65 275.094L1023.25 95.8927Z" stroke="url(#paint19_linear_179_482)" stroke-width="3"/>
<path opacity="0.20202" d="M1021.81 93.4926C1018.42 86.2289 1020.1 77.6101 1025.96 72.1441L1171.46 -63.5384C1177.32 -69.0044 1186.04 -70.0744 1193.05 -66.1888L1367.05 30.2633C1374.06 34.1489 1377.77 42.1063 1376.24 49.9738L1338.28 245.267C1336.75 253.134 1330.33 259.122 1322.38 260.099L1124.91 284.345C1116.96 285.322 1109.28 281.065 1105.89 273.801L1021.81 93.4926Z" stroke="url(#paint20_linear_179_482)" stroke-width="3"/>
<path opacity="0.212121" d="M1020.42 91.1147C1017.16 83.7929 1018.99 75.2047 1024.94 69.8419L1172.47 -62.9922C1178.43 -68.3551 1187.16 -69.2728 1194.1 -65.2655L1366.02 33.9932C1372.96 38.0005 1376.53 46.0215 1374.87 53.8611L1333.59 248.04C1331.93 255.88 1325.4 261.755 1317.43 262.593L1120 283.343C1112.03 284.181 1104.43 279.791 1101.17 272.469L1020.42 91.1147Z" stroke="url(#paint21_linear_179_482)" stroke-width="3"/>
<path opacity="0.222222" d="M1019.09 88.7567C1015.96 81.3791 1017.93 72.8241 1023.98 67.566L1173.48 -62.3903C1179.53 -67.6484 1188.27 -68.4137 1195.14 -64.2858L1364.94 37.7362C1371.81 41.8641 1375.24 49.9461 1373.43 57.7554L1328.87 250.765C1327.07 258.574 1320.45 264.334 1312.46 265.033L1115.13 282.297C1107.14 282.996 1099.62 278.474 1096.49 271.096L1019.09 88.7567Z" stroke="url(#paint22_linear_179_482)" stroke-width="3"/>
<path opacity="0.232323" d="M1017.81 86.4211C1014.81 78.9901 1016.93 70.4708 1023.07 65.3191L1174.48 -61.7313C1180.62 -66.8831 1189.38 -67.4955 1196.18 -63.2484L1363.8 41.493C1370.6 45.7401 1373.89 53.8808 1371.95 61.6574L1324.13 253.442C1322.19 261.218 1315.46 266.862 1307.47 267.421L1110.3 281.209C1102.3 281.768 1094.85 277.115 1091.85 269.684L1017.81 86.4211Z" stroke="url(#paint23_linear_179_482)" stroke-width="3"/>
<path opacity="0.242424" d="M1016.58 84.1083C1013.71 76.6259 1015.98 68.1451 1022.21 63.1013L1175.48 -61.0161C1181.71 -66.0599 1190.48 -66.5194 1197.2 -62.1543L1362.6 45.2618C1369.33 49.6269 1372.47 57.8238 1370.4 65.5654L1319.35 256.069C1317.28 263.811 1310.45 269.337 1302.45 269.756L1105.5 280.078C1097.49 280.497 1090.13 275.715 1087.26 268.233L1016.58 84.1083Z" stroke="url(#paint24_linear_179_482)" stroke-width="3"/>
<path opacity="0.252525" d="M1015.4 81.8183C1012.66 74.2869 1015.08 65.847 1021.39 60.9127L1176.47 -60.2454C1182.79 -65.1797 1191.56 -65.4861 1198.2 -61.0044L1361.35 49.0411C1368 53.5228 1371 61.7734 1368.79 69.4776L1314.55 258.647C1312.34 266.352 1305.42 271.757 1297.41 272.037L1100.74 278.905C1092.73 279.185 1085.45 274.275 1082.71 266.743L1015.4 81.8183Z" stroke="url(#paint25_linear_179_482)" stroke-width="3"/>
<path opacity="0.262626" d="M1014.27 79.5528C1011.66 71.9748 1014.23 63.5784 1020.63 58.755L1177.45 -59.4188C1183.85 -64.2421 1192.63 -64.3954 1199.2 -59.7984L1360.05 52.8304C1366.61 57.4275 1369.47 65.7292 1367.13 73.3936L1309.72 261.176C1307.38 268.84 1300.36 274.124 1292.35 274.264L1096.02 277.691C1088 277.831 1080.81 272.795 1078.2 265.217L1014.27 79.5528Z" stroke="url(#paint26_linear_179_482)" stroke-width="3"/>
<path opacity="0.272727" d="M1013.2 77.3127C1010.72 69.6903 1013.43 61.34 1019.92 56.6291L1178.43 -58.5364C1184.91 -63.2474 1193.69 -63.2474 1200.18 -58.5365L1358.69 56.6291C1365.17 61.34 1367.89 69.6903 1365.41 77.3127L1304.86 263.654C1302.39 271.277 1295.28 276.438 1287.27 276.438L1091.34 276.438C1083.32 276.438 1076.22 271.277 1073.74 263.654L1013.2 77.3127Z" stroke="url(#paint27_linear_179_482)" stroke-width="3"/>
<path opacity="0.282828" d="M1012.17 75.0991C1009.83 67.4346 1012.69 59.1329 1019.25 54.5359L1179.39 -57.5985C1185.96 -62.1955 1194.74 -62.0423 1201.14 -57.2189L1357.27 60.4361C1363.67 65.2594 1366.24 73.6558 1363.63 81.2339L1299.98 266.083C1297.37 273.661 1290.18 278.697 1282.17 278.557L1086.7 275.145C1078.68 275.005 1071.67 269.721 1069.33 262.057L1012.17 75.0991Z" stroke="url(#paint28_linear_179_482)" stroke-width="3"/>
<path opacity="0.292929" d="M1011.19 72.9126C1008.98 65.2084 1011.98 56.9579 1018.63 52.4761L1180.35 -56.6052C1186.99 -61.087 1195.77 -60.7806 1202.08 -55.8462L1355.8 64.2504C1362.12 69.1847 1364.54 77.6247 1361.79 85.156L1295.08 268.461C1292.34 275.992 1285.06 280.902 1277.05 280.622L1082.1 273.815C1074.09 273.535 1067.17 268.129 1064.96 260.425L1011.19 72.9126Z" stroke="url(#paint29_linear_179_482)" stroke-width="3"/>
<path opacity="0.30303" d="M1010.26 70.7528C1008.19 63.0112 1011.33 54.8143 1018.05 50.4492L1181.29 -55.5584C1188.01 -59.9235 1196.78 -59.464 1203.01 -54.4202L1354.27 68.0696C1360.5 73.1134 1362.77 81.5943 1359.9 89.0766L1290.15 270.787C1287.28 278.269 1279.91 283.051 1271.91 282.632L1077.54 272.445C1069.53 272.026 1062.71 266.5 1060.64 258.759L1010.26 70.7528Z" stroke="url(#paint30_linear_179_482)" stroke-width="3"/>
<path opacity="0.313131" d="M1009.38 68.6226C1007.44 60.846 1010.73 52.7053 1017.53 48.4582L1182.22 -54.4559C1189.02 -58.7031 1197.78 -58.0906 1203.92 -52.9389L1352.69 71.8951C1358.83 77.0468 1360.95 85.5661 1357.95 92.9971L1285.2 273.063C1282.2 280.494 1274.75 285.147 1266.76 284.588L1073.02 271.04C1065.03 270.481 1058.3 264.838 1056.36 257.061L1009.38 68.6226Z" stroke="url(#paint31_linear_179_482)" stroke-width="3"/>
<path opacity="0.323232" d="M1008.54 66.5208C1006.74 58.7116 1010.17 50.6295 1017.04 46.5016L1183.14 -53.3005C1190.01 -57.4283 1198.76 -56.6631 1204.81 -51.405L1351.05 75.7236C1357.1 80.9817 1359.07 89.5367 1355.94 96.9143L1280.23 275.286C1277.1 282.664 1269.57 287.186 1261.59 286.487L1068.55 269.599C1060.56 268.9 1053.94 263.14 1052.13 255.331L1008.54 66.5208Z" stroke="url(#paint32_linear_179_482)" stroke-width="3"/>
<path opacity="0.333333" d="M1007.76 64.4505C1006.09 56.6109 1009.66 48.59 1016.6 44.5826L1184.05 -52.0899C1190.99 -56.0973 1199.72 -55.1795 1205.67 -49.8167L1349.36 79.5565C1355.31 84.9194 1357.14 93.5075 1353.88 100.829L1275.24 277.459C1271.98 284.781 1264.38 289.171 1256.4 288.333L1064.12 268.123C1056.15 267.285 1049.62 261.41 1047.96 253.571L1007.76 64.4505Z" stroke="url(#paint33_linear_179_482)" stroke-width="3"/>
<path opacity="0.343434" d="M1007.02 62.41C1005.49 54.5426 1009.2 46.5852 1016.21 42.6996L1184.93 -50.827C1191.94 -54.7126 1200.66 -53.6426 1206.52 -48.1766L1347.61 83.3905C1353.47 88.8565 1355.14 97.4752 1351.76 104.739L1270.23 279.579C1266.84 286.842 1259.16 291.099 1251.21 290.122L1059.73 266.612C1051.78 265.635 1045.35 259.647 1043.83 251.78L1007.02 62.41Z" stroke="url(#paint34_linear_179_482)" stroke-width="3"/>
<path opacity="0.353535" d="M1006.32 60.4019C1004.93 52.509 1008.78 44.6176 1015.85 40.8549L1185.81 -49.5104C1192.88 -53.2731 1201.58 -52.0512 1207.34 -46.4837L1345.8 87.2263C1351.57 92.7938 1353.09 101.44 1349.58 108.644L1265.2 281.647C1261.69 288.85 1253.93 292.972 1246 291.857L1055.39 265.068C1047.45 263.953 1041.14 257.854 1039.74 249.961L1006.32 60.4019Z" stroke="url(#paint35_linear_179_482)" stroke-width="3"/>
<path opacity="0.363636" d="M1005.67 58.4254C1004.41 50.5094 1008.4 42.6863 1015.54 39.0478L1186.66 -48.1421C1193.8 -51.7807 1202.47 -50.4071 1208.14 -44.7399L1343.94 91.0614C1349.61 96.7286 1350.98 105.401 1347.35 112.542L1260.16 283.661C1256.52 290.803 1248.69 294.789 1240.78 293.535L1051.09 263.491C1043.17 262.237 1036.97 256.029 1035.71 248.113L1005.67 58.4254Z" stroke="url(#paint36_linear_179_482)" stroke-width="3"/>
<path opacity="0.373737" d="M1005.06 56.4828C1003.95 48.5461 1008.07 40.7938 1015.27 37.2804L1187.5 -46.7208C1194.7 -50.2342 1203.35 -48.7095 1208.92 -42.9443L1342.03 94.8964C1347.6 100.662 1348.82 109.356 1345.05 116.433L1255.09 285.624C1251.33 292.701 1243.44 296.55 1235.55 295.158L1046.84 261.883C1038.94 260.492 1032.84 254.176 1031.73 246.239L1005.06 56.4828Z" stroke="url(#paint37_linear_179_482)" stroke-width="3"/>
<path opacity="0.383838" d="M1004.5 54.5733C1003.52 46.6183 1007.78 38.9392 1015.04 35.552L1188.32 -45.2484C1195.58 -48.6356 1204.2 -46.9602 1209.67 -41.0987L1340.06 98.7289C1345.52 104.59 1346.59 113.305 1342.71 120.315L1250.02 287.533C1246.13 294.543 1238.18 298.254 1230.31 296.725L1042.63 260.244C1034.76 258.714 1028.78 252.293 1027.8 244.338L1004.5 54.5733Z" stroke="url(#paint38_linear_179_482)" stroke-width="3"/>
<path opacity="0.393939" d="M1003.98 52.6985C1003.14 44.7277 1007.53 37.124 1014.85 33.8641L1189.12 -43.7245C1196.44 -46.9844 1205.03 -45.1589 1210.39 -39.2029L1338.03 102.559C1343.4 108.515 1344.31 117.247 1340.31 124.188L1244.93 289.39C1240.92 296.331 1232.9 299.902 1225.06 298.236L1038.47 258.575C1030.63 256.908 1024.75 250.383 1023.92 242.413L1003.98 52.6985Z" stroke="url(#paint39_linear_179_482)" stroke-width="3"/>
<path opacity="0.40404" d="M1003.5 50.8584C1002.8 42.8742 1007.32 35.3483 1014.7 32.2167L1189.9 -42.1504C1197.27 -45.282 1205.83 -43.3069 1211.09 -37.2582L1335.95 106.384C1341.21 112.433 1341.98 121.18 1337.85 128.05L1239.82 291.192C1235.69 298.062 1227.61 301.493 1219.8 299.69L1034.35 256.876C1026.54 255.073 1020.78 248.446 1020.08 240.462L1003.5 50.8584Z" stroke="url(#paint40_linear_179_482)" stroke-width="3"/>
<path opacity="0.414141" d="M1003.06 49.0553C1002.5 41.0601 1007.15 33.6142 1014.58 30.6119L1190.65 -40.5248C1198.08 -43.5271 1206.6 -41.403 1211.75 -35.2635L1333.82 110.206C1338.97 116.346 1339.58 125.104 1335.34 131.901L1234.71 292.943C1230.46 299.74 1222.32 303.029 1214.54 301.09L1030.28 255.15C1022.51 253.211 1016.86 246.485 1016.31 238.49L1003.06 49.0553Z" stroke="url(#paint41_linear_179_482)" stroke-width="3"/>
<path opacity="0.424242" d="M1002.66 47.2883C1002.24 39.2846 1007.02 31.9211 1014.51 29.0489L1191.39 -38.8496C1198.87 -41.7219 1207.35 -39.4494 1212.39 -33.2209L1331.63 114.022C1336.67 120.25 1337.13 129.018 1332.77 135.74L1229.58 294.64C1225.21 301.361 1217.01 304.508 1209.27 302.433L1026.26 253.396C1018.52 251.322 1013 244.498 1012.58 236.495L1002.66 47.2883Z" stroke="url(#paint42_linear_179_482)" stroke-width="3"/>
<path opacity="0.434343" d="M1002.3 45.5582C1002.02 37.5484 1006.93 30.2695 1014.47 27.5283L1192.1 -37.1255C1199.63 -39.8667 1208.07 -37.4465 1213.01 -31.1309L1329.39 117.831C1334.32 124.146 1334.63 132.921 1330.15 139.566L1224.44 296.283C1219.96 302.927 1211.71 305.93 1204 303.721L1022.29 251.616C1014.59 249.407 1009.18 242.488 1008.9 234.478L1002.3 45.5582Z" stroke="url(#paint43_linear_179_482)" stroke-width="3"/>
<path opacity="0.444444" d="M1001.99 43.8659C1001.85 35.8524 1006.88 28.6602 1014.46 26.0509L1192.79 -35.3526C1200.37 -37.9619 1208.76 -35.3949 1213.59 -28.9941L1327.09 121.632C1331.91 128.033 1332.07 136.811 1327.47 143.377L1219.29 297.872C1214.69 304.437 1206.39 307.296 1198.73 304.952L1018.37 249.81C1010.7 247.467 1005.42 240.455 1005.28 232.441L1001.99 43.8659Z" stroke="url(#paint44_linear_179_482)" stroke-width="3"/>
<path opacity="0.454545" d="M1001.71 42.2133C1001.71 34.1987 1006.87 27.0954 1014.49 24.6188L1193.45 -33.5298C1201.08 -36.0065 1209.43 -33.2934 1214.14 -26.8094L1324.74 125.426C1329.45 131.91 1329.45 140.69 1324.74 147.174L1214.14 299.409C1209.43 305.893 1201.08 308.606 1193.45 306.129L1014.49 247.981C1006.87 245.504 1001.71 238.401 1001.71 230.386L1001.71 42.2133Z" stroke="url(#paint45_linear_179_482)" stroke-width="3"/>
<path opacity="0.464646" d="M1001.46 40.5983C1001.6 32.5848 1006.89 25.5728 1014.55 23.2295L1194.09 -31.6609C1201.76 -34.0042 1210.06 -31.1457 1214.65 -24.5804L1322.34 129.209C1326.94 135.774 1326.78 144.553 1321.96 150.953L1208.97 300.891C1204.15 307.292 1195.75 309.859 1188.17 307.249L1010.66 246.127C1003.08 243.517 998.047 236.325 998.187 228.312L1001.46 40.5983Z" stroke="url(#paint46_linear_179_482)" stroke-width="3"/>
<path opacity="0.474747" d="M1001.26 39.023C1001.54 31.0132 1006.94 24.0944 1014.65 21.8853L1194.7 -29.7446C1202.41 -31.9537 1210.66 -28.9508 1215.14 -22.3063L1319.88 132.981C1324.36 139.626 1324.06 148.401 1319.12 154.716L1203.8 302.319C1198.87 308.635 1190.43 311.055 1182.9 308.314L1006.88 244.25C999.351 241.509 994.441 234.23 994.721 226.22L1001.26 39.023Z" stroke="url(#paint47_linear_179_482)" stroke-width="3"/>
<path opacity="0.484848" d="M1001.09 37.4882C1001.51 29.4845 1007.03 22.6611 1014.77 20.5867L1195.29 -27.7813C1203.03 -29.8557 1211.23 -26.7092 1215.59 -19.9875L1317.37 136.743C1321.74 143.465 1321.28 152.233 1316.23 158.461L1198.63 303.694C1193.58 309.923 1185.1 312.195 1177.62 309.323L1003.15 242.351C995.67 239.479 990.888 232.116 991.308 224.112L1001.09 37.4882Z" stroke="url(#paint48_linear_179_482)" stroke-width="3"/>
<path opacity="0.494949" d="M1000.95 35.9929C1001.51 27.9977 1007.16 21.2719 1014.93 19.3329L1195.84 -25.7731C1203.62 -27.7121 1211.76 -24.423 1216.01 -17.6262L1314.81 140.491C1319.06 147.288 1318.44 156.047 1313.29 162.186L1193.45 305.015C1188.29 311.154 1179.77 313.278 1172.34 310.276L999.471 240.431C992.04 237.429 987.387 229.983 987.946 221.988L1000.95 35.9929Z" stroke="url(#paint49_linear_179_482)" stroke-width="3"/>
<path opacity="0.50505" d="M1000.85 34.541C1001.55 26.5568 1007.31 19.9304 1015.12 18.1275L1196.37 -23.7174C1204.18 -25.5203 1212.26 -22.0896 1216.39 -15.2197L1312.2 144.229C1316.33 151.099 1315.56 159.845 1310.3 165.894L1188.26 306.283C1183.01 312.332 1174.45 314.307 1167.07 311.176L995.842 238.493C988.465 235.361 983.943 227.835 984.641 219.851L1000.85 34.541Z" stroke="url(#paint50_linear_179_482)" stroke-width="3"/>
<path opacity="0.515152" d="M1000.79 33.13C1001.62 25.1592 1007.5 18.6344 1015.34 16.9681L1196.87 -21.6176C1204.71 -23.2839 1212.73 -19.7128 1216.74 -12.7719L1309.53 147.951C1313.54 154.892 1312.62 163.624 1307.26 169.58L1183.08 307.498C1177.71 313.454 1169.13 315.279 1161.8 312.019L992.262 236.535C984.94 233.275 980.55 225.671 981.388 217.7L1000.79 33.13Z" stroke="url(#paint51_linear_179_482)" stroke-width="3"/>
<path opacity="0.525253" d="M1000.75 31.7606C1001.73 23.8057 1007.72 17.3844 1015.58 15.8551L1197.34 -19.4743C1205.21 -21.0036 1213.16 -17.293 1217.05 -10.2832L1306.81 151.658C1310.7 158.667 1309.63 167.382 1304.16 173.244L1177.89 308.658C1172.42 314.52 1163.8 316.195 1156.54 312.808L988.732 234.558C981.468 231.17 977.211 223.491 978.188 215.536L1000.75 31.7606Z" stroke="url(#paint52_linear_179_482)" stroke-width="3"/>
<path opacity="0.535354" d="M1000.75 30.435C1001.87 22.4983 1007.97 16.1825 1015.86 14.7908L1197.78 -17.2864C1205.67 -18.6781 1213.56 -14.8292 1217.32 -7.75264L1304.05 155.35C1307.81 162.426 1306.59 171.121 1301.02 176.886L1172.7 309.766C1167.13 315.531 1158.49 317.056 1151.28 313.542L985.252 232.564C978.049 229.051 973.927 221.299 975.042 213.362L1000.75 30.435Z" stroke="url(#paint53_linear_179_482)" stroke-width="3"/>
<path opacity="0.545455" d="M1000.78 29.1515C1002.04 21.2355 1008.24 15.0271 1016.16 13.7733L1198.18 -15.0566C1206.1 -16.3104 1213.92 -12.3243 1217.56 -5.18317L1301.23 159.024C1304.87 166.165 1303.49 174.837 1297.83 180.504L1167.51 310.819C1161.84 316.487 1153.17 317.86 1146.03 314.222L981.825 230.554C974.684 226.915 970.698 219.092 971.951 211.176L1000.78 29.1515Z" stroke="url(#paint54_linear_179_482)" stroke-width="3"/>
<path opacity="0.555556" d="M1000.84 27.9124C1002.23 20.0194 1008.55 13.9203 1016.48 12.8049L1198.56 -12.7839C1206.49 -13.8993 1214.25 -9.77731 1217.76 -2.57378L1298.36 162.681C1301.87 169.884 1300.35 178.531 1294.58 184.099L1162.32 311.82C1156.56 317.388 1147.86 318.61 1140.79 314.847L978.447 228.529C971.37 224.766 967.521 216.875 968.913 208.982L1000.84 27.9124Z" stroke="url(#paint55_linear_179_482)" stroke-width="3"/>
<path opacity="0.565657" d="M1000.93 26.7174C1002.46 18.85 1008.88 12.862 1016.84 11.8853L1198.9 -10.4694C1206.86 -11.4462 1214.53 -7.18955 1217.92 0.0742097L1295.44 166.32C1298.83 173.584 1297.16 182.202 1291.29 187.668L1157.14 312.768C1151.28 318.234 1142.56 319.304 1135.55 315.419L975.121 226.489C968.111 222.604 964.401 214.646 965.93 206.779L1000.93 26.7174Z" stroke="url(#paint56_linear_179_482)" stroke-width="3"/>
<path opacity="0.575758" d="M1001.05 25.5665C1002.71 17.7269 1009.24 11.8519 1017.21 11.0142L1199.21 -8.1146C1207.18 -8.95238 1214.78 -4.56236 1218.04 2.75941L1292.47 169.939C1295.73 177.261 1293.91 185.849 1287.95 191.212L1151.96 313.663C1146 319.026 1137.27 319.944 1130.33 315.936L971.845 224.436C964.904 220.429 961.333 212.408 962.999 204.568L1001.05 25.5665Z" stroke="url(#paint57_linear_179_482)" stroke-width="3"/>
<path opacity="0.585859" d="M1001.19 24.4618C1003 16.6525 1009.62 10.8923 1017.61 10.1938L1199.48 -5.71822C1207.47 -6.41674 1214.99 -1.89468 1218.12 5.48285L1289.46 173.539C1292.59 180.917 1290.61 189.472 1284.57 194.73L1146.78 314.506C1140.73 319.764 1131.98 320.53 1125.11 316.402L968.621 222.371C961.751 218.243 958.32 210.161 960.123 202.352L1001.19 24.4618Z" stroke="url(#paint58_linear_179_482)" stroke-width="3"/>
<path opacity="0.59596" d="M1001.36 23.4016C1003.3 15.625 1010.03 9.98131 1018.02 9.42223L1199.72 -3.28312C1207.71 -3.84219 1215.16 0.810515 1218.16 8.24159L1286.39 177.118C1289.39 184.549 1287.27 193.068 1281.13 198.22L1141.6 315.296C1135.47 320.448 1126.71 321.06 1119.91 316.813L965.448 220.294C958.651 216.047 955.362 207.907 957.301 200.13L1001.36 23.4016Z" stroke="url(#paint59_linear_179_482)" stroke-width="3"/>
<path opacity="0.606061" d="M1001.56 22.3866C1003.64 14.645 1010.46 9.11956 1018.47 8.70011L1199.92 -0.809731C1207.93 -1.22918 1215.29 3.55276 1218.16 11.0351L1283.28 180.674C1286.15 188.156 1283.88 196.637 1277.65 201.681L1136.44 316.033C1130.21 321.077 1121.44 321.536 1114.72 317.171L962.328 218.206C955.606 213.841 952.46 205.644 954.534 197.903L1001.56 22.3866Z" stroke="url(#paint60_linear_179_482)" stroke-width="3"/>
<path opacity="0.616162" d="M1001.79 21.4181C1004 13.7139 1010.91 8.3084 1018.92 8.0287L1200.09 1.70225C1208.1 1.42253 1215.38 6.33226 1218.12 13.8636L1280.12 184.208C1282.86 191.739 1280.44 200.179 1274.13 205.113L1131.28 316.718C1124.96 321.653 1116.19 321.959 1109.54 317.477L959.259 216.109C952.614 211.627 949.611 203.377 951.82 195.672L1001.79 21.4181Z" stroke="url(#paint61_linear_179_482)" stroke-width="3"/>
<path opacity="0.626263" d="M1002.03 20.4969C1004.38 12.8324 1011.39 7.54842 1019.4 7.40855L1200.22 4.25235C1208.23 4.11248 1215.43 9.14849 1218.04 16.7265L1276.91 187.719C1279.52 195.297 1276.96 203.694 1270.55 208.517L1126.12 317.353C1119.72 322.176 1110.95 322.329 1104.38 317.732L956.24 214.004C949.675 209.406 946.816 201.105 949.16 193.44L1002.03 20.4969Z" stroke="url(#paint62_linear_179_482)" stroke-width="3"/>
<path opacity="0.636364" d="M1002.3 19.6226C1004.78 12.0002 1011.88 6.83942 1019.9 6.83943L1200.31 6.83944C1208.33 6.83945 1215.43 12.0002 1217.91 19.6226L1273.66 191.207C1276.14 198.829 1273.42 207.18 1266.94 211.891L1120.98 317.936C1114.5 322.647 1105.72 322.647 1099.23 317.936L953.274 211.891C946.79 207.18 944.077 198.829 946.554 191.207L1002.3 19.6226Z" stroke="url(#paint63_linear_179_482)" stroke-width="3"/>
<path opacity="0.646465" d="M1002.6 18.7944C1005.21 11.2164 1012.4 6.18036 1020.41 6.32024L1200.37 9.46138C1208.38 9.60125 1215.4 14.8852 1217.74 22.5497L1270.36 194.669C1272.7 202.333 1269.85 210.635 1263.28 215.232L1115.85 318.466C1109.28 323.063 1100.5 322.91 1094.1 318.087L950.361 209.77C943.96 204.947 941.393 196.55 944.002 188.972L1002.6 18.7944Z" stroke="url(#paint64_linear_179_482)" stroke-width="3"/>
<path opacity="0.656566" d="M1002.91 18.0137C1005.66 10.4823 1012.93 5.5726 1020.94 5.85231L1200.39 12.1186C1208.4 12.3983 1215.32 17.8038 1217.52 25.508L1267.02 198.105C1269.23 205.809 1266.22 214.06 1259.58 218.541L1110.72 318.946C1104.08 323.428 1095.3 323.121 1088.99 318.187L947.498 207.643C941.182 202.709 938.762 194.269 941.504 186.738L1002.91 18.0137Z" stroke="url(#paint65_linear_179_482)" stroke-width="3"/>
<path opacity="0.666667" d="M1003.25 17.2802C1006.12 9.79788 1013.48 5.01593 1021.49 5.43539L1200.36 14.8099C1208.37 15.2294 1215.19 20.7548 1217.27 28.4964L1263.63 201.514C1265.7 209.256 1262.55 217.453 1255.83 221.818L1105.61 319.375C1098.89 323.74 1090.12 323.28 1083.89 318.236L944.686 205.512C938.457 200.468 936.185 191.987 939.057 184.505L1003.25 17.2802Z" stroke="url(#paint66_linear_179_482)" stroke-width="3"/>
<path opacity="0.676768" d="M1003.61 16.5955C1006.61 9.16439 1014.05 4.51166 1022.05 5.07074L1200.3 17.5356C1208.3 18.0946 1215.02 23.7383 1216.96 31.5149L1260.19 204.897C1262.13 212.674 1258.84 220.815 1252.05 225.062L1100.51 319.753C1093.71 324.001 1084.95 323.388 1078.81 318.236L941.928 203.376C935.788 198.225 933.664 189.705 936.667 182.274L1003.61 16.5955Z" stroke="url(#paint67_linear_179_482)" stroke-width="3"/>
<path opacity="0.686869" d="M1003.98 15.9584C1007.11 8.58085 1014.64 4.05881 1022.62 4.75734L1200.2 20.2937C1208.19 20.9922 1214.81 26.7524 1216.62 34.5617L1256.72 208.252C1258.52 216.062 1255.09 224.144 1248.22 228.272L1095.42 320.082C1088.55 324.21 1079.8 323.445 1073.75 318.186L939.22 201.238C933.172 195.98 931.196 187.425 934.328 180.047L1003.98 15.9584Z" stroke="url(#paint68_linear_179_482)" stroke-width="3"/>
<path opacity="0.69697" d="M1004.37 15.3697C1007.63 8.04792 1015.24 3.65791 1023.21 4.49567L1200.06 23.0838C1208.03 23.9216 1214.56 29.7966 1216.22 37.6361L1253.2 211.579C1254.86 219.418 1251.29 227.439 1244.35 231.446L1090.35 320.361C1083.41 324.368 1074.67 323.45 1068.72 318.087L936.565 199.097C930.609 193.734 928.784 185.146 932.043 177.824L1004.37 15.3697Z" stroke="url(#paint69_linear_179_482)" stroke-width="3"/>
<path opacity="0.707071" d="M1004.78 14.8299C1008.17 7.56616 1015.85 3.30952 1023.8 4.28627L1199.88 25.9056C1207.83 26.8823 1214.25 32.8703 1215.78 40.7377L1249.63 214.876C1251.16 222.743 1247.45 230.701 1240.44 234.586L1085.29 320.59C1078.28 324.476 1069.56 323.406 1063.7 317.94L933.96 196.955C928.098 191.489 926.423 182.87 929.81 175.607L1004.78 14.8299Z" stroke="url(#paint70_linear_179_482)" stroke-width="3"/>
<path opacity="0.717172" d="M1005.21 14.3389C1008.72 7.13536 1016.47 3.01339 1024.41 4.12883L1199.65 28.7578C1207.59 29.8732 1213.91 35.9723 1215.3 43.8652L1246.03 218.143C1247.42 226.036 1243.57 233.927 1236.49 237.69L1080.24 320.771C1073.17 324.533 1064.47 323.312 1058.71 317.744L931.407 194.813C925.642 189.245 924.117 180.599 927.63 173.395L1005.21 14.3389Z" stroke="url(#paint71_linear_179_482)" stroke-width="3"/>
<path opacity="0.727273" d="M1005.65 13.8965C1009.29 6.75538 1017.11 2.76933 1025.03 4.02311L1199.39 31.6393C1207.3 32.8931 1213.51 39.1015 1214.77 47.0175L1242.38 221.379C1243.64 229.295 1239.65 237.119 1232.51 240.757L1075.22 320.902C1068.07 324.541 1059.4 323.168 1053.73 317.5L928.906 192.671C923.238 187.004 921.865 178.332 925.503 171.191L1005.65 13.8965Z" stroke="url(#paint72_linear_179_482)" stroke-width="3"/>
<path opacity="0.737374" d="M1006.1 13.5033C1009.87 6.42677 1017.76 2.57785 1025.65 3.96959L1199.08 34.5498C1206.97 35.9415 1213.07 42.2573 1214.19 50.194L1238.7 224.584C1239.81 232.521 1235.69 240.274 1228.49 243.787L1070.2 320.986C1063 324.499 1054.35 322.975 1048.79 317.209L926.455 190.531C920.887 184.765 919.665 176.071 923.428 168.994L1006.1 13.5033Z" stroke="url(#paint73_linear_179_482)" stroke-width="3"/>
<path opacity="0.747475" d="M1006.57 13.1599C1010.46 6.15013 1018.41 2.43951 1026.28 3.96879L1198.73 37.4888C1206.59 39.0181 1212.58 45.4394 1213.56 53.3943L1234.97 227.758C1235.95 235.713 1231.69 243.392 1224.43 246.779L1065.21 321.022C1057.95 324.409 1049.33 322.734 1043.86 316.872L924.054 188.393C918.588 182.532 917.518 173.817 921.403 166.807L1006.57 13.1599Z" stroke="url(#paint74_linear_179_482)" stroke-width="3"/>
<path opacity="0.757576" d="M1007.05 12.8654C1011.06 5.92444 1019.08 2.3533 1026.92 4.01965L1198.33 40.4546C1206.17 42.1209 1212.05 48.6457 1212.89 56.6165L1231.21 230.899C1232.04 238.87 1227.65 246.473 1220.33 249.733L1060.24 321.011C1052.92 324.27 1044.33 322.445 1038.97 316.489L921.706 186.259C916.344 180.302 915.426 171.571 919.433 164.63L1007.05 12.8654Z" stroke="url(#paint75_linear_179_482)" stroke-width="3"/>
<path opacity="0.767677" d="M1007.55 12.6203C1011.68 5.75039 1019.76 2.31976 1027.57 4.12268L1197.9 43.4467C1205.71 45.2496 1211.47 51.8759 1212.17 59.8601L1227.4 234.006C1228.1 241.99 1223.58 249.516 1216.2 252.648L1055.29 320.952C1047.91 324.084 1039.35 322.109 1034.1 316.06L919.409 184.128C914.151 178.079 913.385 169.333 917.513 162.463L1007.55 12.6203Z" stroke="url(#paint76_linear_179_482)" stroke-width="3"/>
<path opacity="0.777778" d="M1008.05 12.4253C1012.3 5.62849 1020.44 2.33943 1028.22 4.27836L1197.42 46.4648C1205.19 48.4037 1210.84 55.1296 1211.4 63.1247L1223.56 237.08C1224.12 245.075 1219.47 252.521 1212.04 255.524L1050.35 320.848C1042.92 323.85 1034.4 321.726 1029.25 315.586L917.162 182.003C912.01 175.864 911.397 167.105 915.645 160.308L1008.05 12.4253Z" stroke="url(#paint77_linear_179_482)" stroke-width="3"/>
<path opacity="0.787879" d="M1008.57 12.2803C1012.93 5.55858 1021.13 2.41208 1028.87 4.48644L1196.89 49.5078C1204.63 51.5822 1210.16 58.4055 1210.58 66.4092L1219.68 240.12C1220.1 248.124 1215.32 255.487 1207.84 258.359L1045.44 320.697C1037.96 323.57 1029.48 321.297 1024.43 315.069L914.964 179.885C909.92 173.656 909.461 164.888 913.826 158.166L1008.57 12.2803Z" stroke="url(#paint78_linear_179_482)" stroke-width="3"/>
<path opacity="0.79798" d="M1009.09 12.1842C1013.57 5.53968 1021.82 2.53674 1029.52 4.74589L1196.32 52.574C1204.02 54.7831 1209.43 61.7019 1209.71 69.7117L1215.77 243.124C1216.05 251.134 1211.14 258.413 1203.6 261.154L1040.55 320.501C1033.02 323.242 1024.58 320.822 1019.65 314.506L912.817 177.772C907.882 171.456 907.576 162.682 912.058 156.037L1009.09 12.1842Z" stroke="url(#paint79_linear_179_482)" stroke-width="3"/>
<path opacity="0.808081" d="M1009.62 12.1384C1014.21 5.57319 1022.52 2.71469 1030.18 5.05796L1195.71 55.6637C1203.37 58.007 1208.65 65.0191 1208.79 73.0325L1211.81 246.093C1211.95 254.107 1206.92 261.299 1199.34 263.908L1035.68 320.26C1028.1 322.869 1019.71 320.302 1014.89 313.901L910.719 175.668C905.895 169.267 905.742 160.488 910.339 153.923L1009.62 12.1384Z" stroke="url(#paint80_linear_179_482)" stroke-width="3"/>
<path opacity="0.818182" d="M1010.16 12.1421C1014.87 5.65813 1023.22 2.94494 1030.84 5.42162L1195.05 58.7753C1202.67 61.252 1207.83 68.3552 1207.83 76.3699L1207.83 249.026C1207.83 257.041 1202.67 264.144 1195.05 266.621L1030.84 319.974C1023.22 322.451 1014.87 319.738 1010.16 313.254L908.671 173.572C903.96 167.088 903.96 158.308 908.671 151.824L1010.16 12.1421Z" stroke="url(#paint81_linear_179_482)" stroke-width="3"/>
<path opacity="0.828283" d="M1010.7 12.1952C1015.52 5.79434 1023.92 3.2273 1031.5 5.83663L1194.34 61.9076C1201.92 64.517 1206.95 71.7091 1206.81 79.7226L1203.81 251.921C1203.67 259.935 1198.38 266.947 1190.72 269.29L1026.02 319.644C1018.36 321.987 1010.05 319.129 1005.46 312.564L906.673 171.485C902.076 164.92 902.229 156.141 907.053 149.74L1010.7 12.1952Z" stroke="url(#paint82_linear_179_482)" stroke-width="3"/>
<path opacity="0.838384" d="M1011.25 12.2988C1016.19 5.98317 1024.63 3.56307 1032.16 6.30425L1193.59 65.0613C1201.12 67.8025 1206.03 75.0814 1205.75 83.0913L1199.76 254.781C1199.48 262.791 1194.07 269.709 1186.37 271.918L1021.23 319.271C1013.52 321.48 1005.27 318.478 1000.79 311.833L904.725 169.409C900.243 162.765 900.55 153.99 905.484 147.674L1011.25 12.2988Z" stroke="url(#paint83_linear_179_482)" stroke-width="3"/>
<path opacity="0.848485" d="M1011.8 12.4523C1016.85 6.22371 1025.33 3.95126 1032.81 6.82347L1192.79 68.2345C1200.27 71.1067 1205.06 78.4703 1204.64 86.474L1195.67 257.602C1195.25 265.606 1189.72 272.429 1181.98 274.504L1016.46 318.856C1008.72 320.93 1000.52 317.784 996.154 311.062L902.823 167.345C898.458 160.623 898.917 151.855 903.961 145.626L1011.8 12.4523Z" stroke="url(#paint84_linear_179_482)" stroke-width="3"/>
<path opacity="0.858586" d="M1012.36 12.6546C1017.51 6.515 1026.03 4.39091 1033.46 7.39326L1191.95 71.4255C1199.38 74.4279 1204.03 81.8738 1203.47 89.8689L1191.55 260.385C1190.99 268.38 1185.35 275.106 1177.57 277.045L1011.72 318.397C1003.94 320.336 995.798 317.047 991.551 310.25L900.971 165.291C896.724 158.494 897.336 149.736 902.488 143.596L1012.36 12.6546Z" stroke="url(#paint85_linear_179_482)" stroke-width="3"/>
<path opacity="0.868687" d="M1012.92 12.9071C1018.18 6.85839 1026.73 4.88331 1034.11 8.01491L1191.06 74.635C1198.44 77.7666 1202.96 85.2925 1202.26 93.2767L1187.4 263.129C1186.7 271.113 1180.94 277.74 1173.13 279.542L1007 317.897C999.191 319.7 991.109 316.269 986.981 309.399L899.167 163.251C895.039 156.381 895.804 147.635 901.062 141.586L1012.92 12.9071Z" stroke="url(#paint86_linear_179_482)" stroke-width="3"/>
<path opacity="0.878788" d="M1013.48 13.2099C1018.84 7.25379 1027.43 5.42832 1034.75 8.68819L1190.12 77.8619C1197.44 81.1218 1201.83 88.7255 1201 96.6963L1183.22 265.835C1182.38 273.805 1176.51 280.33 1168.67 281.997L1002.31 317.356C994.473 319.023 986.452 315.451 982.444 308.51L897.409 161.225C893.402 154.285 894.32 145.553 899.682 139.597L1013.48 13.2099Z" stroke="url(#paint87_linear_179_482)" stroke-width="3"/>
<path opacity="0.888889" d="M1014.04 13.561C1019.51 7.69944 1028.13 6.02413 1035.39 9.41128L1189.14 81.1038C1196.4 84.491 1200.66 92.1702 1199.68 100.125L1179.01 268.5C1178.03 276.455 1172.04 282.876 1164.18 284.405L997.654 316.774C989.786 318.303 981.829 314.593 977.943 307.583L895.701 159.213C891.815 152.203 892.885 143.489 898.351 137.627L1014.04 13.561Z" stroke="url(#paint88_linear_179_482)" stroke-width="3"/>
<path opacity="0.89899" d="M1014.61 13.9621C1020.17 8.19677 1028.82 6.67212 1036.03 10.1855L1188.11 84.3614C1195.31 87.8748 1199.43 95.6271 1198.32 103.564L1174.77 271.125C1173.65 279.062 1167.55 285.378 1159.66 286.769L993.024 316.152C985.131 317.544 977.24 313.695 973.477 306.618L894.039 157.216C890.276 150.14 891.498 141.445 897.066 135.68L1014.61 13.9621Z" stroke="url(#paint89_linear_179_482)" stroke-width="3"/>
<path opacity="0.909091" d="M1015.17 14.4136C1020.84 8.7464 1029.51 7.3729 1036.65 11.0115L1187.03 87.6346C1194.17 91.2732 1198.16 99.0963 1196.9 107.012L1170.5 273.711C1169.25 281.627 1163.04 287.836 1155.12 289.09L988.424 315.492C980.508 316.746 972.685 312.76 969.046 305.619L892.423 155.237C888.784 148.096 890.158 139.424 895.825 133.757L1015.17 14.4136Z" stroke="url(#paint90_linear_179_482)" stroke-width="3"/>
<path opacity="0.919192" d="M1015.73 14.9125C1021.49 9.34508 1030.19 8.12313 1037.26 11.8858L1185.91 90.9194C1192.98 94.6821 1196.83 102.574 1195.44 110.466L1166.21 276.255C1164.81 284.148 1158.5 290.247 1150.56 291.362L983.854 314.792C975.917 315.907 968.165 311.785 964.652 304.581L890.854 153.273C887.34 146.07 888.865 137.423 894.63 131.855L1015.73 14.9125Z" stroke="url(#paint91_linear_179_482)" stroke-width="3"/>
<path opacity="0.929293" d="M1016.29 15.461C1022.15 9.995 1030.86 8.92498 1037.87 12.8106L1184.73 94.2173C1191.74 98.1029 1195.45 106.06 1193.92 113.928L1161.88 278.758C1160.35 286.625 1153.93 292.613 1145.98 293.59L979.315 314.053C971.36 315.03 963.681 310.774 960.294 303.51L889.33 151.327C885.943 144.063 887.618 135.445 893.48 129.979L1016.29 15.461Z" stroke="url(#paint92_linear_179_482)" stroke-width="3"/>
<path opacity="0.939394" d="M1016.84 16.0589C1022.79 10.6961 1031.53 9.77829 1038.47 13.7856L1183.51 97.5276C1190.45 101.535 1194.02 109.556 1192.36 117.395L1157.54 281.219C1155.87 289.059 1149.34 294.934 1141.37 295.772L974.808 313.279C966.837 314.116 959.233 309.726 955.973 302.404L887.851 149.4C884.592 142.079 886.417 133.49 892.373 128.128L1016.84 16.0589Z" stroke="url(#paint93_linear_179_482)" stroke-width="3"/>
<path opacity="0.949495" d="M1017.39 16.7062C1023.44 11.4481 1032.18 10.6829 1039.05 14.8107L1182.24 100.849C1189.11 104.977 1192.55 113.059 1190.74 120.869L1153.16 283.64C1151.36 291.449 1144.73 297.209 1136.75 297.908L970.333 312.467C962.349 313.166 954.823 308.644 951.691 301.266L886.418 147.493C883.287 140.116 885.262 131.561 891.311 126.303L1017.39 16.7062Z" stroke="url(#paint94_linear_179_482)" stroke-width="3"/>
<path opacity="0.959596" d="M1017.93 17.4005C1024.07 12.2487 1032.83 11.6363 1039.63 15.8834L1180.93 104.18C1187.73 108.427 1191.02 116.567 1189.08 124.344L1148.77 286.016C1146.83 293.793 1140.1 299.437 1132.11 299.996L965.893 311.619C957.897 312.178 950.452 307.525 947.449 300.094L885.032 145.605C882.029 138.174 884.153 129.655 890.293 124.503L1017.93 17.4005Z" stroke="url(#paint95_linear_179_482)" stroke-width="3"/>
<path opacity="0.969697" d="M1018.47 18.1439C1024.7 13.1001 1033.47 12.6406 1040.19 17.0057L1179.57 107.52C1186.29 111.885 1189.44 120.082 1187.36 127.823L1144.35 288.351C1142.27 296.093 1135.45 301.618 1127.45 302.038L961.484 310.736C953.48 311.155 946.117 306.373 943.245 298.891L883.687 143.738C880.815 136.256 883.087 127.775 889.316 122.731L1018.47 18.1439Z" stroke="url(#paint96_linear_179_482)" stroke-width="3"/>
<path opacity="0.979798" d="M1019 18.9342C1025.31 13.9998 1034.09 13.6934 1040.73 18.1752L1178.16 110.867C1184.8 115.349 1187.8 123.599 1185.59 131.303L1139.9 290.642C1137.69 298.346 1130.78 303.752 1122.77 304.031L957.107 309.816C949.098 310.096 941.819 305.186 939.077 297.655L882.384 141.892C879.643 134.36 882.063 125.92 888.379 120.986L1019 18.9342Z" stroke="url(#paint97_linear_179_482)" stroke-width="3"/>
<path opacity="0.989899" d="M1019.52 19.7735C1025.92 14.9501 1034.7 14.7969 1041.27 19.3939L1176.7 114.223C1183.26 118.82 1186.12 127.121 1183.78 134.786L1135.44 292.891C1133.09 300.555 1126.08 305.839 1118.07 305.979L952.766 308.864C944.752 309.004 937.56 303.968 934.951 296.39L881.125 140.069C878.516 132.491 881.083 124.094 887.484 119.271L1019.52 19.7735Z" stroke="url(#paint98_linear_179_482)" stroke-width="3"/>
<path d="M1020.04 20.6595C1026.52 15.9486 1035.3 15.9486 1041.79 20.6595L1175.19 117.584C1181.67 122.295 1184.39 130.645 1181.91 138.268L1130.95 295.095C1128.48 302.717 1121.38 307.878 1113.36 307.878H948.463C940.448 307.878 933.345 302.717 930.868 295.095L879.912 138.268C877.435 130.645 880.148 122.295 886.632 117.584L1020.04 20.6595Z" stroke="url(#paint99_linear_179_482)" stroke-width="3"/>
</g>
<defs>
<linearGradient id="paint0_linear_179_482" x1="584.5" y1="120" x2="1476.5" y2="335" gradientUnits="userSpaceOnUse">
<stop stop-color="#682878"/>
<stop offset="1" stop-color="#CC555C"/>
</linearGradient>
<linearGradient id="paint1_linear_179_482" x1="1202.02" y1="148.469" x2="1179.4" y2="-113.563" gradientUnits="userSpaceOnUse">
<stop stop-color="#582565"/>
<stop offset="1" stop-color="#FF9F38"/>
</linearGradient>
<linearGradient id="paint2_linear_179_482" x1="1199.13" y1="148.339" x2="1181.12" y2="-113.568" gradientUnits="userSpaceOnUse">
<stop stop-color="#582565"/>
<stop offset="1" stop-color="#FF9F38"/>
</linearGradient>
<linearGradient id="paint3_linear_179_482" x1="1196.27" y1="148.2" x2="1182.85" y2="-113.503" gradientUnits="userSpaceOnUse">
<stop stop-color="#582565"/>
<stop offset="1" stop-color="#FF9F38"/>
</linearGradient>
<linearGradient id="paint4_linear_179_482" x1="1193.41" y1="148.05" x2="1184.58" y2="-113.367" gradientUnits="userSpaceOnUse">
<stop stop-color="#582565"/>
<stop offset="1" stop-color="#FF9F38"/>
</linearGradient>
<linearGradient id="paint5_linear_179_482" x1="1190.58" y1="147.891" x2="1186.32" y2="-113.161" gradientUnits="userSpaceOnUse">
<stop stop-color="#582565"/>
<stop offset="1" stop-color="#FF9F38"/>
</linearGradient>
<linearGradient id="paint6_linear_179_482" x1="1187.76" y1="147.721" x2="1188.06" y2="-112.885" gradientUnits="userSpaceOnUse">
<stop stop-color="#582565"/>
<stop offset="1" stop-color="#FF9F38"/>
</linearGradient>
<linearGradient id="paint7_linear_179_482" x1="1184.95" y1="147.543" x2="1189.79" y2="-112.539" gradientUnits="userSpaceOnUse">
<stop stop-color="#582565"/>
<stop offset="1" stop-color="#FF9F38"/>
</linearGradient>
<linearGradient id="paint8_linear_179_482" x1="1182.17" y1="147.356" x2="1191.53" y2="-112.121" gradientUnits="userSpaceOnUse">
<stop stop-color="#582565"/>
<stop offset="1" stop-color="#FF9F38"/>
</linearGradient>
<linearGradient id="paint9_linear_179_482" x1="1179.4" y1="147.161" x2="1193.26" y2="-111.634" gradientUnits="userSpaceOnUse">
<stop stop-color="#582565"/>
<stop offset="1" stop-color="#FF9F38"/>
</linearGradient>
<linearGradient id="paint10_linear_179_482" x1="1176.65" y1="146.957" x2="1195" y2="-111.079" gradientUnits="userSpaceOnUse">
<stop stop-color="#582565"/>
<stop offset="1" stop-color="#FF9F38"/>
</linearGradient>
<linearGradient id="paint11_linear_179_482" x1="1173.92" y1="146.746" x2="1196.72" y2="-110.452" gradientUnits="userSpaceOnUse">
<stop stop-color="#582565"/>
<stop offset="1" stop-color="#FF9F38"/>
</linearGradient>
<linearGradient id="paint12_linear_179_482" x1="1171.21" y1="146.526" x2="1198.44" y2="-109.758" gradientUnits="userSpaceOnUse">
<stop stop-color="#582565"/>
<stop offset="1" stop-color="#FF9F38"/>
</linearGradient>
<linearGradient id="paint13_linear_179_482" x1="1168.51" y1="146.301" x2="1200.15" y2="-108.992" gradientUnits="userSpaceOnUse">
<stop stop-color="#582565"/>
<stop offset="1" stop-color="#FF9F38"/>
</linearGradient>
<linearGradient id="paint14_linear_179_482" x1="1165.83" y1="146.068" x2="1201.86" y2="-108.159" gradientUnits="userSpaceOnUse">
<stop stop-color="#582565"/>
<stop offset="1" stop-color="#FF9F38"/>
</linearGradient>
<linearGradient id="paint15_linear_179_482" x1="1163.17" y1="145.829" x2="1203.55" y2="-107.257" gradientUnits="userSpaceOnUse">
<stop stop-color="#582565"/>
<stop offset="1" stop-color="#FF9F38"/>
</linearGradient>
<linearGradient id="paint16_linear_179_482" x1="1160.53" y1="145.583" x2="1205.24" y2="-106.287" gradientUnits="userSpaceOnUse">
<stop stop-color="#582565"/>
<stop offset="1" stop-color="#FF9F38"/>
</linearGradient>
<linearGradient id="paint17_linear_179_482" x1="1157.9" y1="145.331" x2="1206.91" y2="-105.248" gradientUnits="userSpaceOnUse">
<stop stop-color="#582565"/>
<stop offset="1" stop-color="#FF9F38"/>
</linearGradient>
<linearGradient id="paint18_linear_179_482" x1="1155.3" y1="145.075" x2="1208.57" y2="-104.142" gradientUnits="userSpaceOnUse">
<stop stop-color="#582565"/>
<stop offset="1" stop-color="#FF9F38"/>
</linearGradient>
<linearGradient id="paint19_linear_179_482" x1="1152.71" y1="144.813" x2="1210.21" y2="-102.969" gradientUnits="userSpaceOnUse">
<stop stop-color="#582565"/>
<stop offset="1" stop-color="#FF9F38"/>
</linearGradient>
<linearGradient id="paint20_linear_179_482" x1="1150.14" y1="144.545" x2="1211.84" y2="-101.73" gradientUnits="userSpaceOnUse">
<stop stop-color="#582565"/>
<stop offset="1" stop-color="#FF9F38"/>
</linearGradient>
<linearGradient id="paint21_linear_179_482" x1="1147.59" y1="144.274" x2="1213.46" y2="-100.423" gradientUnits="userSpaceOnUse">
<stop stop-color="#582565"/>
<stop offset="1" stop-color="#FF9F38"/>
</linearGradient>
<linearGradient id="paint22_linear_179_482" x1="1145.05" y1="143.998" x2="1215.05" y2="-99.0509" gradientUnits="userSpaceOnUse">
<stop stop-color="#582565"/>
<stop offset="1" stop-color="#FF9F38"/>
</linearGradient>
<linearGradient id="paint23_linear_179_482" x1="1142.54" y1="143.719" x2="1216.63" y2="-97.6125" gradientUnits="userSpaceOnUse">
<stop stop-color="#582565"/>
<stop offset="1" stop-color="#FF9F38"/>
</linearGradient>
<linearGradient id="paint24_linear_179_482" x1="1140.04" y1="143.437" x2="1218.18" y2="-96.109" gradientUnits="userSpaceOnUse">
<stop stop-color="#582565"/>
<stop offset="1" stop-color="#FF9F38"/>
</linearGradient>
<linearGradient id="paint25_linear_179_482" x1="1137.57" y1="143.15" x2="1219.72" y2="-94.5416" gradientUnits="userSpaceOnUse">
<stop stop-color="#582565"/>
<stop offset="1" stop-color="#FF9F38"/>
</linearGradient>
<linearGradient id="paint26_linear_179_482" x1="1135.11" y1="142.861" x2="1221.23" y2="-92.91" gradientUnits="userSpaceOnUse">
<stop stop-color="#582565"/>
<stop offset="1" stop-color="#FF9F38"/>
</linearGradient>
<linearGradient id="paint27_linear_179_482" x1="1132.67" y1="142.57" x2="1222.72" y2="-91.2147" gradientUnits="userSpaceOnUse">
<stop stop-color="#582565"/>
<stop offset="1" stop-color="#FF9F38"/>
</linearGradient>
<linearGradient id="paint28_linear_179_482" x1="1130.25" y1="142.276" x2="1224.18" y2="-89.456" gradientUnits="userSpaceOnUse">
<stop stop-color="#582565"/>
<stop offset="1" stop-color="#FF9F38"/>
</linearGradient>
<linearGradient id="paint29_linear_179_482" x1="1127.84" y1="141.981" x2="1225.62" y2="-87.6346" gradientUnits="userSpaceOnUse">
<stop stop-color="#582565"/>
<stop offset="1" stop-color="#FF9F38"/>
</linearGradient>
<linearGradient id="paint30_linear_179_482" x1="1125.46" y1="141.684" x2="1227.03" y2="-85.7525" gradientUnits="userSpaceOnUse">
<stop stop-color="#582565"/>
<stop offset="1" stop-color="#FF9F38"/>
</linearGradient>
<linearGradient id="paint31_linear_179_482" x1="1123.09" y1="141.386" x2="1228.42" y2="-83.8078" gradientUnits="userSpaceOnUse">
<stop stop-color="#582565"/>
<stop offset="1" stop-color="#FF9F38"/>
</linearGradient>
<linearGradient id="paint32_linear_179_482" x1="1120.74" y1="141.087" x2="1229.77" y2="-81.8035" gradientUnits="userSpaceOnUse">
<stop stop-color="#582565"/>
<stop offset="1" stop-color="#FF9F38"/>
</linearGradient>
<linearGradient id="paint33_linear_179_482" x1="1118.41" y1="140.789" x2="1231.1" y2="-79.7379" gradientUnits="userSpaceOnUse">
<stop stop-color="#582565"/>
<stop offset="1" stop-color="#FF9F38"/>
</linearGradient>
<linearGradient id="paint34_linear_179_482" x1="1116.1" y1="140.489" x2="1232.39" y2="-77.6138" gradientUnits="userSpaceOnUse">
<stop stop-color="#582565"/>
<stop offset="1" stop-color="#FF9F38"/>
</linearGradient>
<linearGradient id="paint35_linear_179_482" x1="1113.81" y1="140.19" x2="1233.65" y2="-75.4303" gradientUnits="userSpaceOnUse">
<stop stop-color="#582565"/>
<stop offset="1" stop-color="#FF9F38"/>
</linearGradient>
<linearGradient id="paint36_linear_179_482" x1="1111.54" y1="139.891" x2="1234.89" y2="-73.1895" gradientUnits="userSpaceOnUse">
<stop stop-color="#582565"/>
<stop offset="1" stop-color="#FF9F38"/>
</linearGradient>
<linearGradient id="paint37_linear_179_482" x1="1109.28" y1="139.594" x2="1236.08" y2="-70.8906" gradientUnits="userSpaceOnUse">
<stop stop-color="#582565"/>
<stop offset="1" stop-color="#FF9F38"/>
</linearGradient>
<linearGradient id="paint38_linear_179_482" x1="1107.04" y1="139.297" x2="1237.25" y2="-68.5358" gradientUnits="userSpaceOnUse">
<stop stop-color="#582565"/>
<stop offset="1" stop-color="#FF9F38"/>
</linearGradient>
<linearGradient id="paint39_linear_179_482" x1="1104.82" y1="139.002" x2="1238.37" y2="-66.1249" gradientUnits="userSpaceOnUse">
<stop stop-color="#582565"/>
<stop offset="1" stop-color="#FF9F38"/>
</linearGradient>
<linearGradient id="paint40_linear_179_482" x1="1102.62" y1="138.708" x2="1239.46" y2="-63.6593" gradientUnits="userSpaceOnUse">
<stop stop-color="#582565"/>
<stop offset="1" stop-color="#FF9F38"/>
</linearGradient>
<linearGradient id="paint41_linear_179_482" x1="1100.44" y1="138.417" x2="1240.51" y2="-61.1383" gradientUnits="userSpaceOnUse">
<stop stop-color="#582565"/>
<stop offset="1" stop-color="#FF9F38"/>
</linearGradient>
<linearGradient id="paint42_linear_179_482" x1="1098.27" y1="138.128" x2="1241.53" y2="-58.564" gradientUnits="userSpaceOnUse">
<stop stop-color="#582565"/>
<stop offset="1" stop-color="#FF9F38"/>
</linearGradient>
<linearGradient id="paint43_linear_179_482" x1="1096.13" y1="137.842" x2="1242.5" y2="-55.9372" gradientUnits="userSpaceOnUse">
<stop stop-color="#582565"/>
<stop offset="1" stop-color="#FF9F38"/>
</linearGradient>
<linearGradient id="paint44_linear_179_482" x1="1094" y1="137.559" x2="1243.44" y2="-53.2585" gradientUnits="userSpaceOnUse">
<stop stop-color="#582565"/>
<stop offset="1" stop-color="#FF9F38"/>
</linearGradient>
<linearGradient id="paint45_linear_179_482" x1="1091.89" y1="137.28" x2="1244.33" y2="-50.5271" gradientUnits="userSpaceOnUse">
<stop stop-color="#582565"/>
<stop offset="1" stop-color="#FF9F38"/>
</linearGradient>
<linearGradient id="paint46_linear_179_482" x1="1089.8" y1="137.004" x2="1245.18" y2="-47.7469" gradientUnits="userSpaceOnUse">
<stop stop-color="#582565"/>
<stop offset="1" stop-color="#FF9F38"/>
</linearGradient>
<linearGradient id="paint47_linear_179_482" x1="1087.72" y1="136.732" x2="1245.99" y2="-44.9171" gradientUnits="userSpaceOnUse">
<stop stop-color="#582565"/>
<stop offset="1" stop-color="#FF9F38"/>
</linearGradient>
<linearGradient id="paint48_linear_179_482" x1="1085.66" y1="136.465" x2="1246.76" y2="-42.0383" gradientUnits="userSpaceOnUse">
<stop stop-color="#582565"/>
<stop offset="1" stop-color="#FF9F38"/>
</linearGradient>
<linearGradient id="paint49_linear_179_482" x1="1083.62" y1="136.201" x2="1247.48" y2="-39.1129" gradientUnits="userSpaceOnUse">
<stop stop-color="#582565"/>
<stop offset="1" stop-color="#FF9F38"/>
</linearGradient>
<linearGradient id="paint50_linear_179_482" x1="1081.6" y1="135.944" x2="1248.16" y2="-36.1385" gradientUnits="userSpaceOnUse">
<stop stop-color="#582565"/>
<stop offset="1" stop-color="#FF9F38"/>
</linearGradient>
<linearGradient id="paint51_linear_179_482" x1="1079.59" y1="135.691" x2="1248.79" y2="-33.119" gradientUnits="userSpaceOnUse">
<stop stop-color="#582565"/>
<stop offset="1" stop-color="#FF9F38"/>
</linearGradient>
<linearGradient id="paint52_linear_179_482" x1="1077.6" y1="135.444" x2="1249.37" y2="-30.0551" gradientUnits="userSpaceOnUse">
<stop stop-color="#582565"/>
<stop offset="1" stop-color="#FF9F38"/>
</linearGradient>
<linearGradient id="paint53_linear_179_482" x1="1075.63" y1="135.203" x2="1249.91" y2="-26.946" gradientUnits="userSpaceOnUse">
<stop stop-color="#582565"/>
<stop offset="1" stop-color="#FF9F38"/>
</linearGradient>
<linearGradient id="paint54_linear_179_482" x1="1073.67" y1="134.967" x2="1250.4" y2="-23.7948" gradientUnits="userSpaceOnUse">
<stop stop-color="#582565"/>
<stop offset="1" stop-color="#FF9F38"/>
</linearGradient>
<linearGradient id="paint55_linear_179_482" x1="1071.73" y1="134.738" x2="1250.84" y2="-20.6007" gradientUnits="userSpaceOnUse">
<stop stop-color="#582565"/>
<stop offset="1" stop-color="#FF9F38"/>
</linearGradient>
<linearGradient id="paint56_linear_179_482" x1="1069.81" y1="134.516" x2="1251.24" y2="-17.3652" gradientUnits="userSpaceOnUse">
<stop stop-color="#582565"/>
<stop offset="1" stop-color="#FF9F38"/>
</linearGradient>
<linearGradient id="paint57_linear_179_482" x1="1067.9" y1="134.3" x2="1251.58" y2="-14.0899" gradientUnits="userSpaceOnUse">
<stop stop-color="#582565"/>
<stop offset="1" stop-color="#FF9F38"/>
</linearGradient>
<linearGradient id="paint58_linear_179_482" x1="1066.01" y1="134.093" x2="1251.87" y2="-10.7739" gradientUnits="userSpaceOnUse">
<stop stop-color="#582565"/>
<stop offset="1" stop-color="#FF9F38"/>
</linearGradient>
<linearGradient id="paint59_linear_179_482" x1="1064.13" y1="133.892" x2="1252.11" y2="-7.42033" gradientUnits="userSpaceOnUse">
<stop stop-color="#582565"/>
<stop offset="1" stop-color="#FF9F38"/>
</linearGradient>
<linearGradient id="paint60_linear_179_482" x1="1062.28" y1="133.698" x2="1252.3" y2="-4.02995" gradientUnits="userSpaceOnUse">
<stop stop-color="#582565"/>
<stop offset="1" stop-color="#FF9F38"/>
</linearGradient>
<linearGradient id="paint61_linear_179_482" x1="1060.43" y1="133.514" x2="1252.44" y2="-0.602714" gradientUnits="userSpaceOnUse">
<stop stop-color="#582565"/>
<stop offset="1" stop-color="#FF9F38"/>
</linearGradient>
<linearGradient id="paint62_linear_179_482" x1="1058.6" y1="133.338" x2="1252.53" y2="2.86066" gradientUnits="userSpaceOnUse">
<stop stop-color="#582565"/>
<stop offset="1" stop-color="#FF9F38"/>
</linearGradient>
<linearGradient id="paint63_linear_179_482" x1="1056.79" y1="133.17" x2="1252.56" y2="6.35871" gradientUnits="userSpaceOnUse">
<stop stop-color="#582565"/>
<stop offset="1" stop-color="#FF9F38"/>
</linearGradient>
<linearGradient id="paint64_linear_179_482" x1="1055" y1="133.011" x2="1252.54" y2="9.88908" gradientUnits="userSpaceOnUse">
<stop stop-color="#582565"/>
<stop offset="1" stop-color="#FF9F38"/>
</linearGradient>
<linearGradient id="paint65_linear_179_482" x1="1053.21" y1="132.861" x2="1252.46" y2="13.4519" gradientUnits="userSpaceOnUse">
<stop stop-color="#582565"/>
<stop offset="1" stop-color="#FF9F38"/>
</linearGradient>
<linearGradient id="paint66_linear_179_482" x1="1051.44" y1="132.719" x2="1252.33" y2="17.0456" gradientUnits="userSpaceOnUse">
<stop stop-color="#582565"/>
<stop offset="1" stop-color="#FF9F38"/>
</linearGradient>
<linearGradient id="paint67_linear_179_482" x1="1049.69" y1="132.588" x2="1252.15" y2="20.6704" gradientUnits="userSpaceOnUse">
<stop stop-color="#582565"/>
<stop offset="1" stop-color="#FF9F38"/>
</linearGradient>
<linearGradient id="paint68_linear_179_482" x1="1047.95" y1="132.467" x2="1251.9" y2="24.3239" gradientUnits="userSpaceOnUse">
<stop stop-color="#582565"/>
<stop offset="1" stop-color="#FF9F38"/>
</linearGradient>
<linearGradient id="paint69_linear_179_482" x1="1046.23" y1="132.355" x2="1251.61" y2="28.0055" gradientUnits="userSpaceOnUse">
<stop stop-color="#582565"/>
<stop offset="1" stop-color="#FF9F38"/>
</linearGradient>
<linearGradient id="paint70_linear_179_482" x1="1044.51" y1="132.254" x2="1251.25" y2="31.7146" gradientUnits="userSpaceOnUse">
<stop stop-color="#582565"/>
<stop offset="1" stop-color="#FF9F38"/>
</linearGradient>
<linearGradient id="paint71_linear_179_482" x1="1042.82" y1="132.163" x2="1250.84" y2="35.4497" gradientUnits="userSpaceOnUse">
<stop stop-color="#582565"/>
<stop offset="1" stop-color="#FF9F38"/>
</linearGradient>
<linearGradient id="paint72_linear_179_482" x1="1041.13" y1="132.083" x2="1250.38" y2="39.2094" gradientUnits="userSpaceOnUse">
<stop stop-color="#582565"/>
<stop offset="1" stop-color="#FF9F38"/>
</linearGradient>
<linearGradient id="paint73_linear_179_482" x1="1039.46" y1="132.014" x2="1249.85" y2="42.9931" gradientUnits="userSpaceOnUse">
<stop stop-color="#582565"/>
<stop offset="1" stop-color="#FF9F38"/>
</linearGradient>
<linearGradient id="paint74_linear_179_482" x1="1037.8" y1="131.956" x2="1249.27" y2="46.8001" gradientUnits="userSpaceOnUse">
<stop stop-color="#582565"/>
<stop offset="1" stop-color="#FF9F38"/>
</linearGradient>
<linearGradient id="paint75_linear_179_482" x1="1036.16" y1="131.909" x2="1248.63" y2="50.6283" gradientUnits="userSpaceOnUse">
<stop stop-color="#582565"/>
<stop offset="1" stop-color="#FF9F38"/>
</linearGradient>
<linearGradient id="paint76_linear_179_482" x1="1034.52" y1="131.874" x2="1247.93" y2="54.4772" gradientUnits="userSpaceOnUse">
<stop stop-color="#582565"/>
<stop offset="1" stop-color="#FF9F38"/>
</linearGradient>
<linearGradient id="paint77_linear_179_482" x1="1032.9" y1="131.851" x2="1247.18" y2="58.346" gradientUnits="userSpaceOnUse">
<stop stop-color="#582565"/>
<stop offset="1" stop-color="#FF9F38"/>
</linearGradient>
<linearGradient id="paint78_linear_179_482" x1="1031.3" y1="131.84" x2="1246.36" y2="62.2336" gradientUnits="userSpaceOnUse">
<stop stop-color="#582565"/>
<stop offset="1" stop-color="#FF9F38"/>
</linearGradient>
<linearGradient id="paint79_linear_179_482" x1="1029.7" y1="131.84" x2="1245.49" y2="66.1379" gradientUnits="userSpaceOnUse">
<stop stop-color="#582565"/>
<stop offset="1" stop-color="#FF9F38"/>
</linearGradient>
<linearGradient id="paint80_linear_179_482" x1="1028.11" y1="131.853" x2="1244.56" y2="70.059" gradientUnits="userSpaceOnUse">
<stop stop-color="#582565"/>
<stop offset="1" stop-color="#FF9F38"/>
</linearGradient>
<linearGradient id="paint81_linear_179_482" x1="1026.54" y1="131.879" x2="1243.56" y2="73.9949" gradientUnits="userSpaceOnUse">
<stop stop-color="#582565"/>
<stop offset="1" stop-color="#FF9F38"/>
</linearGradient>
<linearGradient id="paint82_linear_179_482" x1="1024.98" y1="131.916" x2="1242.51" y2="77.9445" gradientUnits="userSpaceOnUse">
<stop stop-color="#582565"/>
<stop offset="1" stop-color="#FF9F38"/>
</linearGradient>
<linearGradient id="paint83_linear_179_482" x1="1023.43" y1="131.968" x2="1241.4" y2="81.9079" gradientUnits="userSpaceOnUse">
<stop stop-color="#582565"/>
<stop offset="1" stop-color="#FF9F38"/>
</linearGradient>
<linearGradient id="paint84_linear_179_482" x1="1021.88" y1="132.032" x2="1240.23" y2="85.8833" gradientUnits="userSpaceOnUse">
<stop stop-color="#582565"/>
<stop offset="1" stop-color="#FF9F38"/>
</linearGradient>
<linearGradient id="paint85_linear_179_482" x1="1020.35" y1="132.108" x2="1239" y2="89.8686" gradientUnits="userSpaceOnUse">
<stop stop-color="#582565"/>
<stop offset="1" stop-color="#FF9F38"/>
</linearGradient>
<linearGradient id="paint86_linear_179_482" x1="1018.83" y1="132.199" x2="1237.71" y2="93.8641" gradientUnits="userSpaceOnUse">
<stop stop-color="#582565"/>
<stop offset="1" stop-color="#FF9F38"/>
</linearGradient>
<linearGradient id="paint87_linear_179_482" x1="1017.32" y1="132.303" x2="1236.36" y2="97.8689" gradientUnits="userSpaceOnUse">
<stop stop-color="#582565"/>
<stop offset="1" stop-color="#FF9F38"/>
</linearGradient>
<linearGradient id="paint88_linear_179_482" x1="1015.82" y1="132.42" x2="1234.95" y2="101.88" gradientUnits="userSpaceOnUse">
<stop stop-color="#582565"/>
<stop offset="1" stop-color="#FF9F38"/>
</linearGradient>
<linearGradient id="paint89_linear_179_482" x1="1014.33" y1="132.551" x2="1233.49" y2="105.898" gradientUnits="userSpaceOnUse">
<stop stop-color="#582565"/>
<stop offset="1" stop-color="#FF9F38"/>
</linearGradient>
<linearGradient id="paint90_linear_179_482" x1="1012.85" y1="132.697" x2="1231.96" y2="109.923" gradientUnits="userSpaceOnUse">
<stop stop-color="#582565"/>
<stop offset="1" stop-color="#FF9F38"/>
</linearGradient>
<linearGradient id="paint91_linear_179_482" x1="1011.37" y1="132.856" x2="1230.37" y2="113.95" gradientUnits="userSpaceOnUse">
<stop stop-color="#582565"/>
<stop offset="1" stop-color="#FF9F38"/>
</linearGradient>
<linearGradient id="paint92_linear_179_482" x1="1009.91" y1="133.029" x2="1228.72" y2="117.981" gradientUnits="userSpaceOnUse">
<stop stop-color="#582565"/>
<stop offset="1" stop-color="#FF9F38"/>
</linearGradient>
<linearGradient id="paint93_linear_179_482" x1="1008.45" y1="133.217" x2="1227.01" y2="122.015" gradientUnits="userSpaceOnUse">
<stop stop-color="#582565"/>
<stop offset="1" stop-color="#FF9F38"/>
</linearGradient>
<linearGradient id="paint94_linear_179_482" x1="1007" y1="133.42" x2="1225.25" y2="126.05" gradientUnits="userSpaceOnUse">
<stop stop-color="#582565"/>
<stop offset="1" stop-color="#FF9F38"/>
</linearGradient>
<linearGradient id="paint95_linear_179_482" x1="1005.56" y1="133.636" x2="1223.42" y2="130.084" gradientUnits="userSpaceOnUse">
<stop stop-color="#582565"/>
<stop offset="1" stop-color="#FF9F38"/>
</linearGradient>
<linearGradient id="paint96_linear_179_482" x1="1004.12" y1="133.868" x2="1221.54" y2="134.118" gradientUnits="userSpaceOnUse">
<stop stop-color="#582565"/>
<stop offset="1" stop-color="#FF9F38"/>
</linearGradient>
<linearGradient id="paint97_linear_179_482" x1="1002.69" y1="134.113" x2="1219.59" y2="138.148" gradientUnits="userSpaceOnUse">
<stop stop-color="#582565"/>
<stop offset="1" stop-color="#FF9F38"/>
</linearGradient>
<linearGradient id="paint98_linear_179_482" x1="1001.27" y1="134.374" x2="1217.58" y2="142.177" gradientUnits="userSpaceOnUse">
<stop stop-color="#582565"/>
<stop offset="1" stop-color="#FF9F38"/>
</linearGradient>
<linearGradient id="paint99_linear_179_482" x1="999.861" y1="134.649" x2="1215.52" y2="146.2" gradientUnits="userSpaceOnUse">
<stop stop-color="#582565"/>
<stop offset="1" stop-color="#FF9F38"/>
</linearGradient>
</defs>
</svg>
