<svg width="40" height="40" viewBox="0 0 40 40" fill="none" xmlns="http://www.w3.org/2000/svg">
<path d="M28.8384 17.1437C28.8384 16.765 28.688 16.4019 28.4203 16.1342C28.1526 15.8665 27.7895 15.7161 27.4109 15.7161H10.8654L14.1488 12.447C14.4176 12.1782 14.5686 11.8136 14.5686 11.4334C14.5686 11.0532 14.4176 10.6886 14.1488 10.4198C13.88 10.151 13.5154 10 13.1352 10C12.7551 10 12.3905 10.151 12.1217 10.4198L6.4114 16.1301C6.21332 16.3308 6.07913 16.5858 6.02578 16.8627C5.97243 17.1396 6.00229 17.4262 6.11162 17.6861C6.21871 17.9468 6.40058 18.17 6.6343 18.3275C6.86802 18.485 7.14314 18.5698 7.42497 18.5712H27.4109C27.7895 18.5712 28.1526 18.4208 28.4203 18.1531C28.688 17.8854 28.8384 17.5223 28.8384 17.1437ZM34.4345 22.3114C34.3274 22.0507 34.1455 21.8276 33.9118 21.6701C33.6781 21.5126 33.4029 21.4278 33.1211 21.4263H13.1352C12.7566 21.4263 12.3935 21.5767 12.1258 21.8445C11.8581 22.1122 11.7077 22.4753 11.7077 22.8539C11.7077 23.2325 11.8581 23.5956 12.1258 23.8633C12.3935 24.1311 12.7566 24.2815 13.1352 24.2815H29.6807L26.3973 27.5506C26.2635 27.6833 26.1573 27.8412 26.0848 28.0152C26.0123 28.1891 25.975 28.3757 25.975 28.5642C25.975 28.7526 26.0123 28.9392 26.0848 29.1132C26.1573 29.2871 26.2635 29.445 26.3973 29.5777C26.53 29.7115 26.6879 29.8177 26.8618 29.8902C27.0358 29.9627 27.2224 30 27.4109 30C27.5993 30 27.7859 29.9627 27.9599 29.8902C28.1338 29.8177 28.2917 29.7115 28.4244 29.5777L34.1347 23.8675C34.3328 23.6667 34.4669 23.4118 34.5203 23.1349C34.5737 22.8579 34.5438 22.5714 34.4345 22.3114Z" fill="url(#paint0_linear_57_722)"/>
<defs>
<linearGradient id="paint0_linear_57_722" x1="17.5869" y1="17.5" x2="36.1882" y2="18.9221" gradientUnits="userSpaceOnUse">
<stop stop-color="#682878"/>
<stop offset="1" stop-color="#CC555C"/>
</linearGradient>
</defs>
</svg>
