<svg width="168" height="51" viewBox="0 0 168 51" fill="none" xmlns="http://www.w3.org/2000/svg">
<path d="M77.348 16.516V34H73.772V23.944C73.772 23.712 73.776 23.46 73.784 23.188C73.8 22.916 73.824 22.64 73.856 22.36L69.212 31.348C69.068 31.628 68.872 31.84 68.624 31.984C68.384 32.128 68.108 32.2 67.796 32.2H67.244C66.932 32.2 66.652 32.128 66.404 31.984C66.164 31.84 65.972 31.628 65.828 31.348L61.184 22.336C61.208 22.624 61.228 22.908 61.244 23.188C61.26 23.46 61.268 23.712 61.268 23.944V34H57.692V16.516H60.788C60.964 16.516 61.116 16.52 61.244 16.528C61.38 16.536 61.5 16.56 61.604 16.6C61.708 16.64 61.8 16.704 61.88 16.792C61.968 16.872 62.052 16.988 62.132 17.14L66.632 26.008C66.792 26.312 66.944 26.628 67.088 26.956C67.24 27.284 67.384 27.62 67.52 27.964C67.656 27.612 67.796 27.268 67.94 26.932C68.092 26.596 68.252 26.276 68.42 25.972L72.908 17.14C72.988 16.988 73.068 16.872 73.148 16.792C73.236 16.704 73.332 16.64 73.436 16.6C73.54 16.56 73.656 16.536 73.784 16.528C73.92 16.52 74.076 16.516 74.252 16.516H77.348ZM100.387 16.516V34H96.8111V23.944C96.8111 23.712 96.8151 23.46 96.8231 23.188C96.8391 22.916 96.8631 22.64 96.8951 22.36L92.2511 31.348C92.1071 31.628 91.9111 31.84 91.6631 31.984C91.4231 32.128 91.1471 32.2 90.8351 32.2H90.2831C89.9711 32.2 89.6911 32.128 89.4431 31.984C89.2031 31.84 89.0111 31.628 88.8671 31.348L84.2231 22.336C84.2471 22.624 84.2671 22.908 84.2831 23.188C84.2991 23.46 84.3071 23.712 84.3071 23.944V34H80.7311V16.516H83.8271C84.0031 16.516 84.1551 16.52 84.2831 16.528C84.4191 16.536 84.5391 16.56 84.6431 16.6C84.7471 16.64 84.8391 16.704 84.9191 16.792C85.0071 16.872 85.0911 16.988 85.1711 17.14L89.6711 26.008C89.8311 26.312 89.9831 26.628 90.1271 26.956C90.2791 27.284 90.4231 27.62 90.5591 27.964C90.6951 27.612 90.8351 27.268 90.9791 26.932C91.1311 26.596 91.2911 26.276 91.4591 25.972L95.9471 17.14C96.0271 16.988 96.1071 16.872 96.1871 16.792C96.2751 16.704 96.3711 16.64 96.4751 16.6C96.5791 16.56 96.6951 16.536 96.8231 16.528C96.9591 16.52 97.1151 16.516 97.2911 16.516H100.387ZM116.334 19.732H111.414V34H107.358V19.732H102.438V16.516H116.334V19.732ZM128.055 20.068C127.935 20.26 127.807 20.404 127.671 20.5C127.543 20.596 127.375 20.644 127.167 20.644C126.983 20.644 126.783 20.588 126.567 20.476C126.359 20.356 126.119 20.224 125.847 20.08C125.583 19.936 125.279 19.808 124.935 19.696C124.591 19.576 124.199 19.516 123.759 19.516C122.999 19.516 122.431 19.68 122.055 20.008C121.687 20.328 121.503 20.764 121.503 21.316C121.503 21.668 121.615 21.96 121.839 22.192C122.063 22.424 122.355 22.624 122.715 22.792C123.083 22.96 123.499 23.116 123.963 23.26C124.435 23.396 124.915 23.552 125.403 23.728C125.891 23.896 126.367 24.096 126.831 24.328C127.303 24.56 127.719 24.856 128.079 25.216C128.447 25.576 128.743 26.016 128.967 26.536C129.191 27.048 129.303 27.668 129.303 28.396C129.303 29.204 129.163 29.96 128.883 30.664C128.603 31.368 128.195 31.984 127.659 32.512C127.131 33.032 126.475 33.444 125.691 33.748C124.915 34.044 124.031 34.192 123.039 34.192C122.495 34.192 121.939 34.136 121.371 34.024C120.811 33.912 120.267 33.756 119.739 33.556C119.211 33.348 118.715 33.104 118.251 32.824C117.787 32.544 117.383 32.232 117.039 31.888L118.239 29.992C118.335 29.856 118.459 29.744 118.611 29.656C118.771 29.56 118.943 29.512 119.127 29.512C119.367 29.512 119.607 29.588 119.847 29.74C120.095 29.892 120.371 30.06 120.675 30.244C120.987 30.428 121.343 30.596 121.743 30.748C122.143 30.9 122.615 30.976 123.159 30.976C123.895 30.976 124.467 30.816 124.875 30.496C125.283 30.168 125.487 29.652 125.487 28.948C125.487 28.54 125.375 28.208 125.151 27.952C124.927 27.696 124.631 27.484 124.263 27.316C123.903 27.148 123.491 27 123.027 26.872C122.563 26.744 122.087 26.604 121.599 26.452C121.111 26.292 120.635 26.1 120.171 25.876C119.707 25.644 119.291 25.344 118.923 24.976C118.563 24.6 118.271 24.136 118.047 23.584C117.823 23.024 117.711 22.336 117.711 21.52C117.711 20.864 117.843 20.224 118.107 19.6C118.371 18.976 118.759 18.42 119.271 17.932C119.783 17.444 120.411 17.056 121.155 16.768C121.899 16.472 122.751 16.324 123.711 16.324C124.247 16.324 124.767 16.368 125.271 16.456C125.783 16.536 126.267 16.66 126.723 16.828C127.179 16.988 127.603 17.184 127.995 17.416C128.395 17.64 128.751 17.896 129.063 18.184L128.055 20.068ZM140.396 24.508C140.284 24.644 140.176 24.752 140.072 24.832C139.968 24.912 139.82 24.952 139.628 24.952C139.444 24.952 139.276 24.908 139.124 24.82C138.98 24.732 138.816 24.636 138.632 24.532C138.448 24.42 138.232 24.32 137.984 24.232C137.736 24.144 137.428 24.1 137.06 24.1C136.604 24.1 136.208 24.184 135.872 24.352C135.544 24.52 135.272 24.76 135.056 25.072C134.84 25.384 134.68 25.768 134.576 26.224C134.472 26.672 134.42 27.18 134.42 27.748C134.42 28.94 134.648 29.856 135.104 30.496C135.568 31.136 136.204 31.456 137.012 31.456C137.444 31.456 137.784 31.404 138.032 31.3C138.288 31.188 138.504 31.068 138.68 30.94C138.856 30.804 139.016 30.68 139.16 30.568C139.312 30.456 139.5 30.4 139.724 30.4C140.02 30.4 140.244 30.508 140.396 30.724L141.476 32.056C141.092 32.496 140.688 32.856 140.264 33.136C139.84 33.408 139.404 33.624 138.956 33.784C138.516 33.936 138.072 34.04 137.624 34.096C137.176 34.16 136.74 34.192 136.316 34.192C135.556 34.192 134.828 34.048 134.132 33.76C133.444 33.472 132.836 33.056 132.308 32.512C131.788 31.96 131.372 31.284 131.06 30.484C130.756 29.684 130.604 28.772 130.604 27.748C130.604 26.852 130.736 26.016 131 25.24C131.272 24.456 131.668 23.78 132.188 23.212C132.716 22.636 133.364 22.184 134.132 21.856C134.908 21.528 135.804 21.364 136.82 21.364C137.796 21.364 138.652 21.52 139.388 21.832C140.124 22.144 140.788 22.6 141.38 23.2L140.396 24.508ZM149.344 28.936C148.6 28.968 147.988 29.032 147.508 29.128C147.028 29.224 146.648 29.344 146.368 29.488C146.088 29.632 145.892 29.796 145.78 29.98C145.676 30.164 145.624 30.364 145.624 30.58C145.624 31.004 145.74 31.304 145.972 31.48C146.204 31.648 146.544 31.732 146.992 31.732C147.472 31.732 147.892 31.648 148.252 31.48C148.612 31.312 148.976 31.04 149.344 30.664V28.936ZM142.648 23.284C143.4 22.62 144.232 22.128 145.144 21.808C146.064 21.48 147.048 21.316 148.096 21.316C148.848 21.316 149.524 21.44 150.124 21.688C150.732 21.928 151.244 22.268 151.66 22.708C152.084 23.14 152.408 23.656 152.632 24.256C152.856 24.856 152.968 25.512 152.968 26.224V34H151.264C150.912 34 150.644 33.952 150.46 33.856C150.284 33.76 150.136 33.56 150.016 33.256L149.752 32.572C149.44 32.836 149.14 33.068 148.852 33.268C148.564 33.468 148.264 33.64 147.952 33.784C147.648 33.92 147.32 34.02 146.968 34.084C146.624 34.156 146.24 34.192 145.816 34.192C145.248 34.192 144.732 34.12 144.268 33.976C143.804 33.824 143.408 33.604 143.08 33.316C142.76 33.028 142.512 32.672 142.336 32.248C142.16 31.816 142.072 31.32 142.072 30.76C142.072 30.312 142.184 29.86 142.408 29.404C142.632 28.94 143.02 28.52 143.572 28.144C144.124 27.76 144.868 27.44 145.804 27.184C146.74 26.928 147.92 26.784 149.344 26.752V26.224C149.344 25.496 149.192 24.972 148.888 24.652C148.592 24.324 148.168 24.16 147.616 24.16C147.176 24.16 146.816 24.208 146.536 24.304C146.256 24.4 146.004 24.508 145.78 24.628C145.564 24.748 145.352 24.856 145.144 24.952C144.936 25.048 144.688 25.096 144.4 25.096C144.144 25.096 143.928 25.032 143.752 24.904C143.576 24.776 143.432 24.624 143.32 24.448L142.648 23.284ZM158.778 22.9C159.018 22.676 159.266 22.468 159.522 22.276C159.778 22.084 160.05 21.924 160.338 21.796C160.634 21.66 160.95 21.556 161.286 21.484C161.63 21.404 162.002 21.364 162.402 21.364C163.082 21.364 163.682 21.484 164.202 21.724C164.73 21.956 165.174 22.284 165.534 22.708C165.894 23.124 166.166 23.624 166.35 24.208C166.534 24.784 166.626 25.412 166.626 26.092V34H162.906V26.092C162.906 25.484 162.766 25.012 162.486 24.676C162.206 24.332 161.794 24.16 161.25 24.16C160.842 24.16 160.458 24.248 160.098 24.424C159.746 24.592 159.402 24.824 159.066 25.12V34H155.346V21.556H157.65C158.114 21.556 158.418 21.764 158.562 22.18L158.778 22.9Z" fill="url(#paint0_linear_32_520)"/>
<path d="M24 50.4C37.2548 50.4 48 39.1943 48 25.3714C48 11.5485 37.2548 0.342857 24 0.342857C10.7452 0.342857 0 11.5485 0 25.3714C0 39.1943 10.7452 50.4 24 50.4Z" fill="url(#paint1_linear_32_520)"/>
<path d="M21.6519 12.0103C14.6143 12.0103 12.6293 12.0103 12.2684 12.0103C12.088 12.0103 11.5466 12.5749 11.5466 12.7631C11.5466 12.9513 8.83984 24.9951 8.83984 25.1833C8.83984 25.3714 11.3662 37.7916 11.5466 38.168C11.5466 38.3562 12.088 38.7326 12.2684 38.7326H13.8925L21.6519 12.0103Z" fill="white"/>
<path d="M29.9536 12.0103C27.9686 12.0103 23.6378 12.0103 23.2769 12.0103C22.7356 12.0103 22.0137 12.9513 22.0137 13.5158C21.8333 14.0804 18.7656 25.1833 18.7656 25.1833C18.7656 25.1833 19.8483 37.2271 20.0288 37.7916C20.2092 38.3562 22.1942 38.9208 22.5551 38.7326C22.7355 37.7916 29.9536 12.0103 29.9536 12.0103Z" fill="white"/>
<path d="M32.1222 25.3715C32.6635 25.1833 33.0244 25.5597 33.2049 25.5597C33.5658 25.936 34.1071 26.3124 34.468 26.6888C34.468 19.9141 34.468 12.7631 34.468 12.5749C34.468 12.3867 34.1071 11.8222 33.9267 11.8222C33.5658 11.8222 31.7613 11.8222 31.0395 11.8222L27.25 25.1833C27.25 25.1833 29.235 33.8398 29.5959 36.2862C30.3177 38.3562 32.4831 38.7326 33.2049 38.7326C33.9267 38.7326 34.468 38.168 34.468 38.168C34.468 38.168 34.468 34.7807 34.468 30.4525C32.1222 29.5115 31.0395 28.0061 30.859 27.8179C30.6786 27.4415 30.6786 26.5006 30.859 26.5006C30.859 26.3124 31.5808 25.5597 32.1222 25.3715ZM32.1222 18.5968C32.4831 18.5968 32.844 18.9732 32.844 19.3496C32.844 19.7259 32.4831 20.1023 32.1222 20.1023C31.7613 20.1023 31.4004 19.7259 31.4004 19.3496C31.4004 18.785 31.7613 18.5968 32.1222 18.5968Z" fill="white"/>
<path d="M42.5812 28.006C41.8594 29.6997 40.0549 31.3933 37.7091 31.3933C36.4459 31.2052 35.3632 31.017 34.4609 30.6406C34.4609 29.5115 34.4609 28.1942 34.4609 26.8769C35.3632 27.6296 36.8068 28.1942 38.7918 28.5706C40.7767 28.1942 40.7767 26.8769 40.7767 26.1242C40.7767 25.3714 40.2354 24.8069 39.5136 24.6187C38.2504 24.4305 37.8895 24.6187 36.9873 25.7478C36.9873 23.4896 39.8745 22.7368 41.4985 23.8659C43.1226 24.6187 43.303 26.3123 42.5812 28.006Z" fill="white"/>
<defs>
<linearGradient id="paint0_linear_32_520" x1="101.461" y1="20.875" x2="171.857" y2="35.4373" gradientUnits="userSpaceOnUse">
<stop stop-color="#682878"/>
<stop offset="1" stop-color="#CC555C"/>
</linearGradient>
<linearGradient id="paint1_linear_32_520" x1="19.4833" y1="19.1143" x2="50.8613" y2="20.7259" gradientUnits="userSpaceOnUse">
<stop stop-color="#682878"/>
<stop offset="1" stop-color="#CC555C"/>
</linearGradient>
</defs>
</svg>
