<svg width="40" height="40" viewBox="0 0 40 40" fill="none" xmlns="http://www.w3.org/2000/svg">
<path d="M32.9364 27.6421H7.26198C7.11789 27.6421 7 27.76 7 27.9041V29.738C7 29.8821 7.11789 30 7.26198 30H32.9364C33.0805 30 33.1984 29.8821 33.1984 29.738V27.9041C33.1984 27.76 33.0805 27.6421 32.9364 27.6421ZM8.75857 23.5421L10.0587 24.8356C10.1602 24.9372 10.3272 24.9372 10.4287 24.8356L18.1147 17.1759L21.3109 20.3623C21.5078 20.5574 21.7738 20.6668 22.051 20.6668C22.3282 20.6668 22.5942 20.5574 22.7911 20.3623L31.4431 11.743C31.5446 11.6415 31.5446 11.4744 31.4431 11.3729L30.143 10.0761C30.0938 10.0274 30.0273 10 29.958 10C29.8887 10 29.8222 10.0274 29.773 10.0761L22.0543 17.7719L18.8548 14.5855C18.6579 14.3904 18.3919 14.2809 18.1147 14.2809C17.8375 14.2809 17.5715 14.3904 17.3746 14.5855L8.75857 23.172C8.73407 23.1962 8.71462 23.225 8.70135 23.2568C8.68807 23.2886 8.68124 23.3226 8.68124 23.3571C8.68124 23.3915 8.68807 23.4256 8.70135 23.4573C8.71462 23.4891 8.73407 23.5179 8.75857 23.5421Z" fill="url(#paint0_linear_57_715)"/>
<defs>
<linearGradient id="paint0_linear_57_715" x1="17.634" y1="17.5" x2="34.7212" y2="18.6989" gradientUnits="userSpaceOnUse">
<stop stop-color="#682878"/>
<stop offset="1" stop-color="#CC555C"/>
</linearGradient>
</defs>
</svg>
